<svg xmlns="http://www.w3.org/2000/svg" viewBox="0 0 696 459"><defs><style>.cls-1{fill:#afd3cd;}.cls-2{fill:#5c7de4;}.cls-3{fill:#222b3e;}.cls-4{fill:#fff;}.cls-5{fill:#ffae8a;}.cls-6{fill:#d8d8d8;}.cls-7{fill:#476cc6;}</style></defs><title>Asset 24</title><g id="Layer_2" data-name="Layer 2"><g id="Layer_1-2" data-name="Layer 1"><rect class="cls-1" y="0.24" width="696" height="458.76"/><rect class="cls-2" x="174" y="111" width="174" height="522" transform="translate(633 111) rotate(90)"/><polygon class="cls-3" points="348 285 402 372 348 459 87 459 87 285 348 285"/><polygon class="cls-2" points="174 285 228 372 174 459 15 459 15 285 174 285"/><path class="cls-4" d="M26.8,322.3a8.52,8.52,0,0,1,3.41,3.24,9.25,9.25,0,0,1,1.21,4.75A9.06,9.06,0,0,1,30.18,335a8.65,8.65,0,0,1-3.46,3.24,10.83,10.83,0,0,1-5.07,1.16h-7.6V321.14h7.76A10.58,10.58,0,0,1,26.8,322.3Zm-2.16,12.94a5.08,5.08,0,0,0,1.9-2,6.21,6.21,0,0,0,.68-2.93,6,6,0,0,0-.72-2.95,5.24,5.24,0,0,0-2-2,5.51,5.51,0,0,0-2.81-.71H18.18V336h3.73A5.25,5.25,0,0,0,24.64,335.24Z"/><path class="cls-4" d="M47.18,322.08a9.35,9.35,0,0,1,3.54,3.38,9.59,9.59,0,0,1,0,9.61,9.43,9.43,0,0,1-3.54,3.41,10.66,10.66,0,0,1-10,0,9.26,9.26,0,0,1-3.54-3.4,9.55,9.55,0,0,1,0-9.62,9.22,9.22,0,0,1,3.52-3.38,10.78,10.78,0,0,1,10,0Zm-7.76,3.15a5.64,5.64,0,0,0-2.07,2.1,5.89,5.89,0,0,0-.75,2.93,5.72,5.72,0,0,0,.77,2.95,5.9,5.9,0,0,0,2.06,2.12,5.34,5.34,0,0,0,2.81.78,5.27,5.27,0,0,0,2.78-.77,5.47,5.47,0,0,0,2-2.12,6.16,6.16,0,0,0,0-5.89,5.49,5.49,0,0,0-2-2.1,5.27,5.27,0,0,0-2.78-.77A5.49,5.49,0,0,0,39.42,325.23Z"/><path class="cls-4" d="M65.3,325.1a5.6,5.6,0,0,0-2.55-.64,5.37,5.37,0,0,0-2.82.76,5.31,5.31,0,0,0-2,2.06,5.82,5.82,0,0,0-.74,2.9,5.88,5.88,0,0,0,.74,2.91,5.38,5.38,0,0,0,2,2.09,5.3,5.3,0,0,0,2.82.78,5.89,5.89,0,0,0,2.49-.59,7.93,7.93,0,0,0,2.26-1.58l2.43,2.63a10.81,10.81,0,0,1-3.43,2.41,9.64,9.64,0,0,1-4,.89,9.87,9.87,0,0,1-4.89-1.24,9.08,9.08,0,0,1-3.44-3.41A9.47,9.47,0,0,1,53,330.23a9.11,9.11,0,0,1,4.8-8.15,10.09,10.09,0,0,1,5-1.23,9.93,9.93,0,0,1,3.92.83,9.77,9.77,0,0,1,3.29,2.23l-2.41,2.95A6.9,6.9,0,0,0,65.3,325.1Z"/><path class="cls-4" d="M77.32,335a3.93,3.93,0,0,0,3,1.14A3.77,3.77,0,0,0,83.15,335a4.31,4.31,0,0,0,1.08-3.11V321.14h4.12v10.74a8.4,8.4,0,0,1-1,4.17,6.66,6.66,0,0,1-2.8,2.71,9.18,9.18,0,0,1-4.32,1,9.28,9.28,0,0,1-4.33-1,6.67,6.67,0,0,1-2.85-2.71,8.41,8.41,0,0,1-1-4.17V321.14h4.13v10.74A4.17,4.17,0,0,0,77.32,335Z"/><path class="cls-4" d="M92.06,321.14h4.6l5.7,11.24L108,321.14h4.57v18.29h-3.71V327.07l-5.19,10.5H101l-5.23-10.5v12.36H92.06Z"/><path class="cls-4" d="M116.62,321.14h13.93v3.42h-9.8v4h8.81V332h-8.81V336h10.09v3.42H116.62Z"/><path class="cls-4" d="M146.72,321.14h3.92v18.29h-3.76L138,327.67v11.76h-3.94V321.14h3.76L146.72,333Z"/><path class="cls-4" d="M152.86,321.14h15.29v3.5h-5.59v14.79h-4.13V324.64h-5.57Z"/><path class="cls-4" d="M179.42,324.86a9,9,0,0,0-2.7-.51,3.1,3.1,0,0,0-1.7.4,1.26,1.26,0,0,0-.63,1.15,1.61,1.61,0,0,0,.9,1.47,14.07,14.07,0,0,0,2.79,1.06,24.11,24.11,0,0,1,3.09,1.1,5.48,5.48,0,0,1,2.08,1.64,4.61,4.61,0,0,1,.86,2.9,5,5,0,0,1-.93,3,5.58,5.58,0,0,1-2.54,1.92,9.71,9.71,0,0,1-3.69.66,12.67,12.67,0,0,1-4.36-.79,11.76,11.76,0,0,1-3.71-2.14l1.64-3.37a11.28,11.28,0,0,0,3.19,2,8.49,8.49,0,0,0,3.29.76,3.65,3.65,0,0,0,2-.47,1.64,1.64,0,0,0,.24-2.52,3.56,3.56,0,0,0-1.23-.75c-.5-.19-1.18-.41-2-.65a23.36,23.36,0,0,1-3.07-1.05,5.43,5.43,0,0,1-2-1.59,4.37,4.37,0,0,1-.86-2.85,4.85,4.85,0,0,1,.88-2.89,5.67,5.67,0,0,1,2.49-1.9,9.45,9.45,0,0,1,3.71-.67,12.73,12.73,0,0,1,3.71.55,12.33,12.33,0,0,1,3.24,1.46l-1.6,3.43A13.53,13.53,0,0,0,179.42,324.86Z"/><path class="cls-4" d="M25.28,364l-2.9-5.23h-4.2V364H14.05V345.69H22a8.31,8.31,0,0,1,5.54,1.66,5.79,5.79,0,0,1,2,4.69,7,7,0,0,1-.88,3.62,5.59,5.59,0,0,1-2.54,2.28L30,364Zm-7.1-8.68H22a4,4,0,0,0,2.65-.79,2.92,2.92,0,0,0,.93-2.34,2.82,2.82,0,0,0-.93-2.29,4.06,4.06,0,0,0-2.65-.77H18.18Z"/><path class="cls-4" d="M33,345.69H46.89v3.42h-9.8v4H45.9v3.42H37.09v4.05H47.18V364H33Z"/><path class="cls-4" d="M69.73,366.2a7.66,7.66,0,0,1-2.45,1.47,7.53,7.53,0,0,1-2.73.54,5.73,5.73,0,0,1-3.33-1,7.91,7.91,0,0,1-2.49-2.92,10.16,10.16,0,0,1-4.92-1.3,9.22,9.22,0,0,1-4.7-8.15A9.18,9.18,0,0,1,50.4,350a9.32,9.32,0,0,1,3.53-3.38,10.76,10.76,0,0,1,10,0A9.21,9.21,0,0,1,67.46,350a9.37,9.37,0,0,1-4.87,13.63,3.34,3.34,0,0,0,2.43,1.3,3.69,3.69,0,0,0,1.49-.37,9.73,9.73,0,0,0,1.73-1.06Zm-15.62-8.44a6,6,0,0,0,2.07,2.12,5.43,5.43,0,0,0,5.59,0,5.62,5.62,0,0,0,2-2.12,6,6,0,0,0,.75-3,5.86,5.86,0,0,0-.75-2.93,5.64,5.64,0,0,0-2-2.1A5.2,5.2,0,0,0,59,349a5.45,5.45,0,0,0-2.83.77,5.61,5.61,0,0,0-2.06,2.1,6,6,0,0,0,0,5.88Z"/><path class="cls-4" d="M76.56,359.52a4,4,0,0,0,3,1.14,3.79,3.79,0,0,0,2.88-1.12,4.35,4.35,0,0,0,1.07-3.11V345.69H87.6v10.74a8.45,8.45,0,0,1-1,4.16,6.64,6.64,0,0,1-2.81,2.72,9.16,9.16,0,0,1-4.31.95,9.32,9.32,0,0,1-4.34-.95,6.63,6.63,0,0,1-2.85-2.72,8.34,8.34,0,0,1-1-4.16V345.69h4.13v10.74A4.24,4.24,0,0,0,76.56,359.52Z"/><path class="cls-4" d="M91.31,345.69h4.12V364H91.31Z"/><path class="cls-4" d="M110.72,364l-2.9-5.23h-4.21V364H99.48V345.69h8a8.33,8.33,0,0,1,5.54,1.66,5.82,5.82,0,0,1,2,4.69,7.14,7.14,0,0,1-.88,3.62,5.57,5.57,0,0,1-2.55,2.28l3.9,6Zm-7.11-8.68h3.82a4,4,0,0,0,2.65-.79,2.92,2.92,0,0,0,.93-2.34,2.82,2.82,0,0,0-.93-2.29,4.06,4.06,0,0,0-2.65-.77h-3.82Z"/><path class="cls-4" d="M118.4,345.69h13.93v3.42h-9.8v4h8.8v3.42h-8.8v4.05h10.08V364H118.4Z"/><path class="cls-4" d="M148.6,346.85a8.46,8.46,0,0,1,3.41,3.24,9.77,9.77,0,0,1,0,9.49,8.56,8.56,0,0,1-3.46,3.23,10.77,10.77,0,0,1-5.07,1.17h-7.61V345.69h7.76A10.53,10.53,0,0,1,148.6,346.85Zm-2.15,12.93a5,5,0,0,0,1.89-2,6.09,6.09,0,0,0,.68-2.93,6,6,0,0,0-.72-2.95,5.18,5.18,0,0,0-2-2,5.46,5.46,0,0,0-2.8-.72H140V360.5h3.74A5.25,5.25,0,0,0,146.45,359.78Z"/><path class="cls-4" d="M442.05,25H80.51A13.51,13.51,0,0,0,67,38.51v199A13.51,13.51,0,0,0,80.51,251H442.05a13.51,13.51,0,0,0,13.51-13.51v-199A13.51,13.51,0,0,0,442.05,25Z"/><path class="cls-4" d="M14.6,386h4.19v11.5H17.21V387.39H14.6Z"/><path class="cls-4" d="M22.9,396a1,1,0,0,1,0,1.35.81.81,0,0,1-.63.28.83.83,0,0,1-.64-.28,1,1,0,0,1,0-1.35.84.84,0,0,1,.64-.26A.82.82,0,0,1,22.9,396Z"/><path class="cls-4" d="M37.66,387a3.59,3.59,0,0,1,1.18,2.86,3.8,3.8,0,0,1-1.19,3,4.75,4.75,0,0,1-3.31,1.06H31.48v3.58H29.9V386h4.44A4.9,4.9,0,0,1,37.66,387Zm-1.12,4.82a2.35,2.35,0,0,0,.79-1.91,2.29,2.29,0,0,0-.79-1.87,3.57,3.57,0,0,0-2.27-.63l-2.79,0v5h2.79A3.51,3.51,0,0,0,36.54,391.8Z"/><path class="cls-4" d="M48.1,389.62a3.38,3.38,0,0,1,.87,2.47v5.37H47.44v-5a2.12,2.12,0,0,0-2.31-2.33,2.57,2.57,0,0,0-2,.85,3.17,3.17,0,0,0-.74,2.17v4.27H40.86V385.27h1.52v5.37a3.36,3.36,0,0,1,3.32-1.92A3.18,3.18,0,0,1,48.1,389.62Z"/><path class="cls-4" d="M57.61,389.28a4,4,0,0,1,1.58,1.55,4.49,4.49,0,0,1,.57,2.28,4.54,4.54,0,0,1-.57,2.28A4,4,0,0,1,57.61,397a4.69,4.69,0,0,1-2.3.56A4.78,4.78,0,0,1,53,397a4,4,0,0,1-1.57-1.55,4.87,4.87,0,0,1,0-4.57A4,4,0,0,1,53,389.28a4.78,4.78,0,0,1,2.33-.56A4.69,4.69,0,0,1,57.61,389.28Zm-3.82,1.17a2.67,2.67,0,0,0-1,1.09,3.38,3.38,0,0,0-.37,1.58,3.5,3.5,0,0,0,.37,1.61,2.61,2.61,0,0,0,1,1.09,3.12,3.12,0,0,0,3,0,2.58,2.58,0,0,0,1-1.09,3.38,3.38,0,0,0,.37-1.61,3.26,3.26,0,0,0-.37-1.58,2.64,2.64,0,0,0-1-1.09,3.05,3.05,0,0,0-3,0Z"/><path class="cls-4" d="M66.55,396.88a3.68,3.68,0,0,1-2,.64,2.33,2.33,0,0,1-1.68-.61A2.5,2.5,0,0,1,62.2,395v-4.81H61v-1.16H62.2v-2.33h1.55v2.33h2.66v1.16H63.75v4.53a1.59,1.59,0,0,0,.26,1,1,1,0,0,0,.79.31,2.78,2.78,0,0,0,1.34-.41Z"/><path class="cls-4" d="M74.21,389.28a4,4,0,0,1,1.58,1.55,4.49,4.49,0,0,1,.57,2.28,4.54,4.54,0,0,1-.57,2.28A4,4,0,0,1,74.21,397a4.69,4.69,0,0,1-2.3.56,4.78,4.78,0,0,1-2.33-.56A4,4,0,0,1,68,395.4a4.87,4.87,0,0,1,0-4.57,4,4,0,0,1,1.57-1.55,4.78,4.78,0,0,1,2.33-.56A4.69,4.69,0,0,1,74.21,389.28Zm-3.82,1.17a2.73,2.73,0,0,0-1,1.09,3.38,3.38,0,0,0-.37,1.58,3.5,3.5,0,0,0,.37,1.61,2.67,2.67,0,0,0,1,1.09,2.94,2.94,0,0,0,1.52.39,2.89,2.89,0,0,0,1.5-.39,2.67,2.67,0,0,0,1-1.09,3.5,3.5,0,0,0,.36-1.61,3.38,3.38,0,0,0-.36-1.58,2.73,2.73,0,0,0-1-1.09,2.81,2.81,0,0,0-1.5-.4A2.85,2.85,0,0,0,70.39,390.45Z"/><path class="cls-4" d="M23.43,415.73v1.43H15.12V416l4.45-4.62a7.14,7.14,0,0,0,1.15-1.43,2.49,2.49,0,0,0,.43-1.24,1.44,1.44,0,0,0-.6-1.22A2.76,2.76,0,0,0,18.9,407a4.18,4.18,0,0,0-1.67.37,5.42,5.42,0,0,0-1.58,1L15,407.2A7.52,7.52,0,0,1,17,406a5.77,5.77,0,0,1,2.13-.42,4.33,4.33,0,0,1,2.68.77,2.47,2.47,0,0,1,1,2.07q0,1.53-2.13,3.75l-3.47,3.54Z"/><path class="cls-4" d="M26.33,415.69a.9.9,0,0,1,.26.67,1,1,0,0,1-.26.68.83.83,0,0,1-.63.27.85.85,0,0,1-.64-.27.92.92,0,0,1-.26-.68.87.87,0,0,1,.26-.67.85.85,0,0,1,.64-.27A.83.83,0,0,1,26.33,415.69Z"/><path class="cls-4" d="M40.13,407.35a4.4,4.4,0,0,0-6.22,4,4.4,4.4,0,0,0,4.43,4.42,4.44,4.44,0,0,0,1.78-.37,5.14,5.14,0,0,0,1.54-1l1,1a6.45,6.45,0,0,1-2,1.33,5.8,5.8,0,0,1-2.33.49,5.91,5.91,0,0,1-3-.78,5.77,5.77,0,0,1-2.94-5.1,5.67,5.67,0,0,1,.79-2.95,5.81,5.81,0,0,1,2.18-2.11,6.31,6.31,0,0,1,5.36-.32,5.88,5.88,0,0,1,2,1.27l-.94,1.14A4.83,4.83,0,0,0,40.13,407.35Z"/><path class="cls-4" d="M52,409.32a3.4,3.4,0,0,1,.87,2.47v5.37H51.33v-5A2.13,2.13,0,0,0,49,409.87a2.59,2.59,0,0,0-2,.86,3.15,3.15,0,0,0-.74,2.16v4.27H44.75V405h1.52v5.37a3.36,3.36,0,0,1,3.32-1.92A3.21,3.21,0,0,1,52,409.32Z"/><path class="cls-4" d="M57,405.29a1,1,0,0,1,.27.71,1,1,0,0,1-.27.7,1,1,0,0,1-1.36,0,1,1,0,0,1-.27-.7,1,1,0,0,1,.27-.71,1,1,0,0,1,1.36,0Zm-1.44,3.19h1.53v8.68H55.58Z"/><path class="cls-4" d="M63.7,409.79a3,3,0,0,0-1.52.38,2.7,2.7,0,0,0-1,1.07,3.6,3.6,0,0,0,0,3.18,2.65,2.65,0,0,0,1,1.08,2.88,2.88,0,0,0,1.48.38,3.83,3.83,0,0,0,1.51-.28,2.84,2.84,0,0,0,1.12-.8l.87.89a3.92,3.92,0,0,1-1.5,1.13,5.22,5.22,0,0,1-2.06.39,4.37,4.37,0,0,1-2.25-.56,4,4,0,0,1-1.54-1.55,4.57,4.57,0,0,1-.55-2.27,4.65,4.65,0,0,1,.55-2.29A4,4,0,0,1,61.32,409a4.37,4.37,0,0,1,2.25-.56,5.54,5.54,0,0,1,2,.33,3.8,3.8,0,0,1,1.47,1l-.83,1.05A3.44,3.44,0,0,0,63.7,409.79Z"/><path class="cls-4" d="M74.19,417.16V416a3.58,3.58,0,0,1-3,1.28,3.44,3.44,0,0,1-1.58-.35,2.43,2.43,0,0,1-1-.95,2.53,2.53,0,0,1-.37-1.36,2.22,2.22,0,0,1,.86-1.85,3.88,3.88,0,0,1,2.41-.7h2.75v-.41a1.83,1.83,0,0,0-.56-1.42,2.45,2.45,0,0,0-1.65-.5,4.69,4.69,0,0,0-2.68.94l-.64-1.05a7.64,7.64,0,0,1,1.73-.88,6,6,0,0,1,1.9-.27,3.63,3.63,0,0,1,2.51.79,2.9,2.9,0,0,1,.9,2.23l0,5.71Zm-.91-1.71a2,2,0,0,0,.89-1.37v-.87H71.63a3,3,0,0,0-1.54.31,1.08,1.08,0,0,0-.5,1,1.28,1.28,0,0,0,.51,1.07,2.18,2.18,0,0,0,1.36.39A3.14,3.14,0,0,0,73.28,415.45Z"/><path class="cls-4" d="M86.11,408.48v7.8a4.18,4.18,0,0,1-.55,2.18A3.66,3.66,0,0,1,84,419.9a5.19,5.19,0,0,1-2.33.5,5.93,5.93,0,0,1-3.58-1.22l.67-1.11a4.68,4.68,0,0,0,1.33.78,4.35,4.35,0,0,0,1.51.25,3,3,0,0,0,2.15-.75,2.64,2.64,0,0,0,.81-2v-1.22a3.19,3.19,0,0,1-1.25,1.22,3.7,3.7,0,0,1-1.81.44,4,4,0,0,1-2.06-.53,3.67,3.67,0,0,1-1.38-1.49,4.67,4.67,0,0,1-.5-2.18,4.56,4.56,0,0,1,.5-2.16A3.6,3.6,0,0,1,79.45,409a4,4,0,0,1,2.06-.52,3.79,3.79,0,0,1,1.82.42,3.23,3.23,0,0,1,1.24,1.22v-1.59Zm-2.87,6.68a2.73,2.73,0,0,0,1-1,3.26,3.26,0,0,0,.35-1.51,3.2,3.2,0,0,0-.35-1.51,2.69,2.69,0,0,0-1-1.05,2.73,2.73,0,0,0-1.43-.38,2.76,2.76,0,0,0-1.44.38,2.64,2.64,0,0,0-1,1.05,3.09,3.09,0,0,0-.36,1.51,3,3,0,0,0,.79,2.11,2.64,2.64,0,0,0,2,.82A2.73,2.73,0,0,0,83.24,415.16Z"/><path class="cls-4" d="M94.82,409a4,4,0,0,1,1.58,1.55,4.83,4.83,0,0,1,0,4.55,4,4,0,0,1-1.58,1.56,4.58,4.58,0,0,1-2.3.56,4.67,4.67,0,0,1-2.33-.56,4,4,0,0,1-1.57-1.55,4.84,4.84,0,0,1,0-4.56A4,4,0,0,1,90.19,409a4.67,4.67,0,0,1,2.33-.56A4.58,4.58,0,0,1,94.82,409ZM91,410.15a2.73,2.73,0,0,0-1,1.09,3.45,3.45,0,0,0-.37,1.59,3.5,3.5,0,0,0,.37,1.61,2.67,2.67,0,0,0,1,1.09,3.12,3.12,0,0,0,3,0,2.64,2.64,0,0,0,1-1.09,3.38,3.38,0,0,0,.37-1.61,3.33,3.33,0,0,0-.37-1.59,2.7,2.7,0,0,0-1-1.09,3.12,3.12,0,0,0-3,0Z"/><path class="cls-4" d="M111,417.16l-2.28-3.61-.64,0h-2.92v3.58h-1.58V405.67h4.5a5.05,5.05,0,0,1,3.38,1,3.56,3.56,0,0,1,1.19,2.86,4.09,4.09,0,0,1-.65,2.35,3.63,3.63,0,0,1-1.87,1.38l2.68,3.89Zm-2.92-5a3.51,3.51,0,0,0,2.27-.64,2.37,2.37,0,0,0,.79-1.92,2.26,2.26,0,0,0-.79-1.86,3.57,3.57,0,0,0-2.27-.63h-2.92v5Z"/><path class="cls-4" d="M121.81,409.62a4.86,4.86,0,0,1,1,3.31c0,.22,0,.38,0,.49H116a3,3,0,0,0,1,1.85,2.9,2.9,0,0,0,2,.69,3.77,3.77,0,0,0,1.44-.27,3.46,3.46,0,0,0,1.16-.79l.84.87a4.33,4.33,0,0,1-1.55,1.06,5,5,0,0,1-2,.38,4.57,4.57,0,0,1-2.27-.55,3.79,3.79,0,0,1-1.55-1.55,5,5,0,0,1,0-4.56,4,4,0,0,1,1.54-1.56,4.47,4.47,0,0,1,2.25-.56A3.81,3.81,0,0,1,121.81,409.62Zm-.34,2.62a2.52,2.52,0,0,0-2.7-2.55,2.75,2.75,0,0,0-1.91.69,2.9,2.9,0,0,0-.91,1.86Z"/><path class="cls-4" d="M128.49,409.87a4.38,4.38,0,0,0-1.24-.2,2.12,2.12,0,0,0-1.11.26.85.85,0,0,0-.42.78.88.88,0,0,0,.47.8,6.89,6.89,0,0,0,1.42.55,11,11,0,0,1,1.47.52,2.63,2.63,0,0,1,1,.77,2.4,2.4,0,0,1-.52,3.22,4,4,0,0,1-2.31.64,5.7,5.7,0,0,1-1.88-.31,4.25,4.25,0,0,1-1.54-.89l.58-1.11a4.1,4.1,0,0,0,1.34.79,4.6,4.6,0,0,0,1.55.29,2.26,2.26,0,0,0,1.21-.28.92.92,0,0,0,.46-.85,1,1,0,0,0-.48-.89,6.48,6.48,0,0,0-1.47-.59,9.47,9.47,0,0,1-1.42-.5,2.53,2.53,0,0,1-.94-.75,2.33,2.33,0,0,1,.5-3.1,3.82,3.82,0,0,1,2.22-.61,5.43,5.43,0,0,1,1.55.22,4.93,4.93,0,0,1,1.33.6l-.56,1.17A5.13,5.13,0,0,0,128.49,409.87Z"/><path class="cls-4" d="M133.92,405.29a1,1,0,0,1,.27.71,1,1,0,0,1-.27.7,1,1,0,0,1-1.36,0,1,1,0,0,1-.27-.7,1,1,0,0,1,.27-.71,1,1,0,0,1,1.36,0Zm-1.44,3.19H134v8.68h-1.53Z"/><path class="cls-4" d="M145.08,405v12.18h-1.53v-1.72a3.54,3.54,0,0,1-1.32,1.34,3.86,3.86,0,0,1-1.93.47,4.09,4.09,0,0,1-2.17-.57,3.87,3.87,0,0,1-1.47-1.58,4.92,4.92,0,0,1-.53-2.31,4.78,4.78,0,0,1,.53-2.27,3.85,3.85,0,0,1,1.47-1.55,4.14,4.14,0,0,1,2.16-.56,4,4,0,0,1,2,.46,3.23,3.23,0,0,1,1.31,1.33V405Zm-3,10.56a2.85,2.85,0,0,0,1.05-1.1,3.64,3.64,0,0,0,0-3.2,2.81,2.81,0,0,0-1.05-1.11,2.94,2.94,0,0,0-1.52-.39,3,3,0,0,0-1.52.4,2.85,2.85,0,0,0-1,1.11,3.54,3.54,0,0,0,0,3.19,2.82,2.82,0,0,0,1,1.1,3.16,3.16,0,0,0,3,0Z"/><path class="cls-4" d="M154.69,409.62a4.86,4.86,0,0,1,1,3.31c0,.22,0,.38,0,.49h-6.86a3,3,0,0,0,1,1.85,2.88,2.88,0,0,0,2,.69,3.84,3.84,0,0,0,1.44-.27,3.42,3.42,0,0,0,1.15-.79l.84.87a4.29,4.29,0,0,1-1.54,1.06,5,5,0,0,1-2,.38,4.58,4.58,0,0,1-2.28-.55,3.77,3.77,0,0,1-1.54-1.55,5,5,0,0,1,0-4.56,4,4,0,0,1,1.53-1.56,4.52,4.52,0,0,1,2.25-.56A3.82,3.82,0,0,1,154.69,409.62Zm-.35,2.62a2.63,2.63,0,0,0-.79-1.87,2.66,2.66,0,0,0-1.9-.68,2.72,2.72,0,0,0-1.91.69,2.91,2.91,0,0,0-.92,1.86Z"/><path class="cls-4" d="M165,409.32a3.4,3.4,0,0,1,.87,2.47v5.37h-1.53v-5a2.13,2.13,0,0,0-2.31-2.33,2.62,2.62,0,0,0-1.9.75,3,3,0,0,0-.83,1.9v4.64h-1.52v-8.68h1.52v1.84a3.35,3.35,0,0,1,3.3-1.89A3.21,3.21,0,0,1,165,409.32Z"/><path class="cls-4" d="M172.24,409.79a3.06,3.06,0,0,0-1.52.38,2.68,2.68,0,0,0-1,1.07,3.56,3.56,0,0,0,0,3.18,2.79,2.79,0,0,0,1,1.08,2.91,2.91,0,0,0,1.48.38,3.88,3.88,0,0,0,1.52-.28,2.81,2.81,0,0,0,1.11-.8l.87.89a3.78,3.78,0,0,1-1.5,1.13,5.18,5.18,0,0,1-2.06.39,4.42,4.42,0,0,1-2.25-.56,4,4,0,0,1-1.54-1.55,4.68,4.68,0,0,1-.55-2.27,4.76,4.76,0,0,1,.55-2.29,4,4,0,0,1,1.54-1.55,4.42,4.42,0,0,1,2.25-.56,5.63,5.63,0,0,1,2,.33,4,4,0,0,1,1.47,1l-.84,1.05A3.44,3.44,0,0,0,172.24,409.79Z"/><path class="cls-4" d="M179.8,419.91a2.58,2.58,0,0,1-1.6.5,2.79,2.79,0,0,1-1.9-.67l.65-1.2a2,2,0,0,0,1.17.41,1.59,1.59,0,0,0,1.48-1.11l.33-.78-3.6-8.58h1.61l2.76,7,2.61-7h1.56l-4,9.91A3.42,3.42,0,0,1,179.8,419.91Z"/><path class="cls-4" d="M22.25,431.15a2.62,2.62,0,0,1,1,2.17,3.3,3.3,0,0,1-.55,1.89,3.61,3.61,0,0,1-1.56,1.28,5.58,5.58,0,0,1-2.36.46,7.42,7.42,0,0,1-2.17-.33,6.67,6.67,0,0,1-1.88-.87l.67-1.28a5.35,5.35,0,0,0,1.54.84,5.21,5.21,0,0,0,1.74.29,3.64,3.64,0,0,0,2.22-.6,1.94,1.94,0,0,0,.81-1.63,1.74,1.74,0,0,0-.81-1.55,4.06,4.06,0,0,0-2.27-.53H17.08v-1l3.53-3.48H15.3v-1.43h7.39v1l-3.86,3.82.69.05A4.83,4.83,0,0,1,22.25,431.15Z"/><path class="cls-4" d="M26.45,435.39a.93.93,0,0,1,.25.67,1,1,0,0,1-.25.69.84.84,0,0,1-.64.27.87.87,0,0,1-.64-.27,1,1,0,0,1-.26-.69.94.94,0,0,1,.26-.67.9.9,0,0,1,.64-.26A.87.87,0,0,1,26.45,435.39Z"/><path class="cls-4" d="M41.16,426.12a5.62,5.62,0,0,1,2.13,2.06,5.76,5.76,0,0,1,.77,2.94,5.62,5.62,0,0,1-.78,2.94,5.53,5.53,0,0,1-2.15,2.06,6.18,6.18,0,0,1-3.05.75H33.45v-11.5h4.68A6.13,6.13,0,0,1,41.16,426.12Zm-.82,8.76a4.07,4.07,0,0,0,1.54-1.54,4.32,4.32,0,0,0,.57-2.2,4.28,4.28,0,0,0-.58-2.22,4.15,4.15,0,0,0-1.56-1.55,4.38,4.38,0,0,0-2.21-.57H35v8.64h3.13A4.34,4.34,0,0,0,40.34,434.88Z"/><path class="cls-4" d="M51.46,436.87v-1.22a3.54,3.54,0,0,1-3,1.28,3.45,3.45,0,0,1-1.59-.34,2.62,2.62,0,0,1-1.05-.95,2.56,2.56,0,0,1-.37-1.37,2.23,2.23,0,0,1,.86-1.84,3.84,3.84,0,0,1,2.41-.7h2.76v-.41a1.79,1.79,0,0,0-.57-1.42,2.4,2.4,0,0,0-1.65-.5,4.75,4.75,0,0,0-2.68.93l-.64-1.05a8.13,8.13,0,0,1,1.74-.88,5.9,5.9,0,0,1,1.89-.27,3.62,3.62,0,0,1,2.51.8,2.85,2.85,0,0,1,.91,2.22v5.72Zm-.91-1.72a2,2,0,0,0,.9-1.37v-.87H48.9a3,3,0,0,0-1.53.31,1.07,1.07,0,0,0-.5,1,1.29,1.29,0,0,0,.51,1.07,2.16,2.16,0,0,0,1.36.39A3.07,3.07,0,0,0,50.55,435.15Z"/><path class="cls-4" d="M60.36,436.29a3.68,3.68,0,0,1-2,.64,2.33,2.33,0,0,1-1.68-.61,2.49,2.49,0,0,1-.64-1.86v-4.82H54.78v-1.16H56v-2.33h1.55v2.33h2.66v1.16H57.56v4.54a1.57,1.57,0,0,0,.26,1,1,1,0,0,0,.79.31,2.68,2.68,0,0,0,1.34-.41Z"/><path class="cls-4" d="M68.64,429.32a4.9,4.9,0,0,1,1,3.31c0,.22,0,.39,0,.5H62.79a3,3,0,0,0,1,1.85,2.9,2.9,0,0,0,2,.69,3.59,3.59,0,0,0,1.44-.28,3.42,3.42,0,0,0,1.16-.79l.84.87a4.44,4.44,0,0,1-1.55,1.07,5.17,5.17,0,0,1-2,.38,4.61,4.61,0,0,1-2.28-.55,4,4,0,0,1-1.54-1.55,4.65,4.65,0,0,1-.55-2.29,4.57,4.57,0,0,1,.55-2.27,4,4,0,0,1,1.54-1.56,4.38,4.38,0,0,1,2.25-.57A3.84,3.84,0,0,1,68.64,429.32Zm-.34,2.62a2.52,2.52,0,0,0-2.7-2.54,2.75,2.75,0,0,0-1.91.69,2.9,2.9,0,0,0-.91,1.85Z"/><path class="cls-4" d="M82,428.69a4,4,0,0,1,1.58,1.55,4.85,4.85,0,0,1,0,4.56A4,4,0,0,1,82,436.36a4.69,4.69,0,0,1-2.3.56,4.78,4.78,0,0,1-2.33-.56,4,4,0,0,1-1.57-1.55,4.87,4.87,0,0,1,0-4.57,4,4,0,0,1,1.57-1.55,4.78,4.78,0,0,1,2.33-.56A4.69,4.69,0,0,1,82,428.69Zm-3.82,1.17a2.67,2.67,0,0,0-1,1.09,3.41,3.41,0,0,0-.37,1.58,3.47,3.47,0,0,0,.37,1.61,2.69,2.69,0,0,0,1,1.1,3.19,3.19,0,0,0,3,0,2.67,2.67,0,0,0,1-1.1,3.36,3.36,0,0,0,.37-1.61,3.29,3.29,0,0,0-.37-1.58,2.64,2.64,0,0,0-1-1.09,3.05,3.05,0,0,0-3,0Z"/><path class="cls-4" d="M88.41,426.31a1.34,1.34,0,0,0-.39,1v1.14h2.4v1.16H88v7.23H86.49v-7.23H85.36v-1.16h1.13v-.94a3.09,3.09,0,0,1,.4-1.62,2.68,2.68,0,0,1,1.06-1,3.11,3.11,0,0,1,1.41-.33,3.43,3.43,0,0,1,1.52.39l-.37,1.25A2.53,2.53,0,0,0,89.4,426,1.4,1.4,0,0,0,88.41,426.31Z"/><path class="cls-4" d="M103.94,426.14a2.5,2.5,0,0,1,1,2.11,2.57,2.57,0,0,1-.56,1.67,2.76,2.76,0,0,1-1.53.91,3,3,0,0,1,1.88,1,2.82,2.82,0,0,1,.68,1.94,2.71,2.71,0,0,1-1.11,2.31,5,5,0,0,1-3.06.83h-5v-11.5h4.91A4.51,4.51,0,0,1,103.94,426.14Zm-1.2,3.66a1.53,1.53,0,0,0,.58-1.29,1.47,1.47,0,0,0-.58-1.26,2.59,2.59,0,0,0-1.65-.43H97.84v3.43h3.25A2.65,2.65,0,0,0,102.74,429.8Zm.35,5.14a1.6,1.6,0,0,0,.72-1.4,1.58,1.58,0,0,0-.72-1.37,3.5,3.5,0,0,0-2-.49H97.84v3.74h3.25A3.35,3.35,0,0,0,103.09,434.94Z"/><path class="cls-4" d="M109.24,425a1,1,0,0,1,.27.7,1,1,0,0,1-.27.71,1,1,0,0,1-1.36,0,1,1,0,0,1-.27-.71,1,1,0,0,1,.27-.7,1,1,0,0,1,1.36,0Zm-1.44,3.18h1.53v8.69H107.8Z"/><path class="cls-4" d="M115,428.63a3.65,3.65,0,0,1,1.88-.5v1.48a2.8,2.8,0,0,0-3.09,2.68v4.58H112.3v-8.69h1.53v1.87A3.2,3.2,0,0,1,115,428.63Z"/><path class="cls-4" d="M123.24,436.29a3.73,3.73,0,0,1-2,.64,2.31,2.31,0,0,1-1.67-.61,2.45,2.45,0,0,1-.64-1.86v-4.82h-1.23v-1.16h1.23v-2.33h1.54v2.33h2.66v1.16h-2.66v4.54a1.64,1.64,0,0,0,.26,1,1,1,0,0,0,.79.31,2.68,2.68,0,0,0,1.35-.41Z"/><path class="cls-4" d="M132.42,429a3.4,3.4,0,0,1,.87,2.47v5.37h-1.53v-5a2.33,2.33,0,0,0-.61-1.72,2.3,2.3,0,0,0-1.7-.61,2.59,2.59,0,0,0-2,.85,3.17,3.17,0,0,0-.74,2.17v4.27h-1.52V424.68h1.52v5.37a3.39,3.39,0,0,1,3.32-1.92A3.18,3.18,0,0,1,132.42,429Z"/><path class="cls-4" d="M244.21,386.9a1.34,1.34,0,0,0-.39,1v1.14h2.39v1.16h-2.39v7.23h-1.53v-7.23h-1.13v-1.16h1.13v-.94a3.09,3.09,0,0,1,.4-1.62,2.68,2.68,0,0,1,1.06-1,3.12,3.12,0,0,1,1.41-.34,3.38,3.38,0,0,1,1.51.4l-.36,1.25a2.53,2.53,0,0,0-1.11-.28A1.4,1.4,0,0,0,244.21,386.9Z"/><path class="cls-4" d="M253.37,389.28a4,4,0,0,1,1.57,1.55,4.49,4.49,0,0,1,.57,2.28,4.54,4.54,0,0,1-.57,2.28,3.93,3.93,0,0,1-1.57,1.56,5.07,5.07,0,0,1-4.63,0,4,4,0,0,1-1.58-1.55,4.87,4.87,0,0,1,0-4.57,4,4,0,0,1,1.58-1.55,5.07,5.07,0,0,1,4.63,0Zm-3.83,1.17a2.64,2.64,0,0,0-1,1.09,3.26,3.26,0,0,0-.37,1.58,3.38,3.38,0,0,0,.37,1.61,2.58,2.58,0,0,0,1,1.09,2.94,2.94,0,0,0,1.52.39,2.89,2.89,0,0,0,1.5-.39,2.67,2.67,0,0,0,1-1.09,3.5,3.5,0,0,0,.37-1.61,3.38,3.38,0,0,0-.37-1.58,2.73,2.73,0,0,0-1-1.09,2.81,2.81,0,0,0-1.5-.4A2.85,2.85,0,0,0,249.54,390.45Z"/><path class="cls-4" d="M260.39,389.22a3.62,3.62,0,0,1,1.87-.5v1.48a2.8,2.8,0,0,0-3.09,2.68v4.58h-1.53v-8.69h1.53v1.87A3.22,3.22,0,0,1,260.39,389.22Z"/><path class="cls-4" d="M276.44,386.64a5.76,5.76,0,0,1,2.19,2.11,5.55,5.55,0,0,1,.8,2.94,5.68,5.68,0,0,1-.8,3,5.89,5.89,0,0,1-2.19,2.13,6.33,6.33,0,0,1-6.09,0,5.84,5.84,0,0,1-2.2-2.13,5.78,5.78,0,0,1-.8-3,5.64,5.64,0,0,1,.8-2.94,5.76,5.76,0,0,1,2.19-2.11,6.35,6.35,0,0,1,6.1,0Zm-5.26,1.23a4.47,4.47,0,0,0-1.63,1.6,4.17,4.17,0,0,0-.61,2.22,4.26,4.26,0,0,0,.61,2.24,4.42,4.42,0,0,0,1.63,1.61,4.36,4.36,0,0,0,2.23.6,4.27,4.27,0,0,0,2.21-.6,4.44,4.44,0,0,0,1.61-1.61,4.35,4.35,0,0,0,.6-2.24,4.25,4.25,0,0,0-.6-2.22,4.49,4.49,0,0,0-1.61-1.6,4.26,4.26,0,0,0-2.21-.59A4.35,4.35,0,0,0,271.18,387.87Z"/><path class="cls-4" d="M288.78,389.62a3.38,3.38,0,0,1,.87,2.47v5.37h-1.53v-5a2.12,2.12,0,0,0-2.31-2.33,2.65,2.65,0,0,0-1.9.74,3,3,0,0,0-.83,1.9v4.65h-1.53v-8.69h1.53v1.84a3.35,3.35,0,0,1,3.3-1.89A3.18,3.18,0,0,1,288.78,389.62Z"/><path class="cls-4" d="M298.91,389.91a4.9,4.9,0,0,1,1,3.31c0,.22,0,.38,0,.49h-6.87a3,3,0,0,0,1,1.86,2.9,2.9,0,0,0,2,.69,3.56,3.56,0,0,0,2.6-1.07l.84.87a4.44,4.44,0,0,1-1.55,1.07,5.17,5.17,0,0,1-2,.38,4.72,4.72,0,0,1-2.28-.55,4,4,0,0,1-1.54-1.55,4.65,4.65,0,0,1-.55-2.29,4.57,4.57,0,0,1,.55-2.27,4,4,0,0,1,1.54-1.56,4.38,4.38,0,0,1,2.25-.57A3.84,3.84,0,0,1,298.91,389.91Zm-.34,2.62a2.52,2.52,0,0,0-2.7-2.54,2.75,2.75,0,0,0-1.91.69,2.87,2.87,0,0,0-.91,1.85Z"/><path class="cls-4" d="M311.53,387.6a5.59,5.59,0,0,0-1.58-.26,2.93,2.93,0,0,0-1.61.39,1.2,1.2,0,0,0-.6,1.06,1.41,1.41,0,0,0,.37,1,2.52,2.52,0,0,0,.88.61c.35.15.84.32,1.46.52a15.88,15.88,0,0,1,1.89.69,3.2,3.2,0,0,1,1.23,1,2.71,2.71,0,0,1,.51,1.72,2.81,2.81,0,0,1-.53,1.72,3.29,3.29,0,0,1-1.5,1.14,5.57,5.57,0,0,1-2.2.41,6.86,6.86,0,0,1-4.54-1.81l.71-1.36a6,6,0,0,0,1.85,1.24,5.07,5.07,0,0,0,2,.43,3.22,3.22,0,0,0,1.82-.45,1.5,1.5,0,0,0,.3-2.22,2.51,2.51,0,0,0-.91-.63c-.37-.15-.86-.32-1.49-.51a15.33,15.33,0,0,1-1.87-.67,3.19,3.19,0,0,1-1.22-1,2.64,2.64,0,0,1-.5-1.69,2.72,2.72,0,0,1,.51-1.63,3.19,3.19,0,0,1,1.42-1.08,5.68,5.68,0,0,1,2.14-.38,7.16,7.16,0,0,1,3.79,1.12l-.65,1.41A6.74,6.74,0,0,0,311.53,387.6Z"/><path class="cls-4" d="M324.13,388.77v8.69h-1.54v-1.84a3.26,3.26,0,0,1-3.22,1.89,3.09,3.09,0,0,1-2.36-.9,3.42,3.42,0,0,1-.86-2.47v-5.37h1.55v5a2.41,2.41,0,0,0,.59,1.72,2.2,2.2,0,0,0,1.66.61,2.47,2.47,0,0,0,1.93-.86,3.25,3.25,0,0,0,.71-2.16v-4.27Z"/><path class="cls-4" d="M340.67,389.63a3.42,3.42,0,0,1,.85,2.46v5.37H340v-5a2.41,2.41,0,0,0-.6-1.73,2.2,2.2,0,0,0-1.65-.62,2.49,2.49,0,0,0-1.94.87,3.24,3.24,0,0,0-.71,2.15v4.29h-1.54v-5a2.45,2.45,0,0,0-.59-1.73,2.19,2.19,0,0,0-1.66-.62,2.49,2.49,0,0,0-1.94.87,3.19,3.19,0,0,0-.72,2.15v4.29H327.1v-8.69h1.53v1.82a3.29,3.29,0,0,1,3.24-1.87,3.26,3.26,0,0,1,2,.58,2.84,2.84,0,0,1,1.08,1.61,3.28,3.28,0,0,1,3.38-2.19A3.05,3.05,0,0,1,340.67,389.63Z"/><path class="cls-4" d="M357.81,389.63a3.43,3.43,0,0,1,.86,2.46v5.37h-1.55v-5a2.41,2.41,0,0,0-.6-1.73,2.2,2.2,0,0,0-1.65-.62,2.47,2.47,0,0,0-1.93.87,3.19,3.19,0,0,0-.71,2.15v4.29h-1.54v-5a2.41,2.41,0,0,0-.6-1.73,2.17,2.17,0,0,0-1.65-.62,2.51,2.51,0,0,0-1.95.87,3.19,3.19,0,0,0-.71,2.15v4.29h-1.53v-8.69h1.53v1.82a3.27,3.27,0,0,1,3.23-1.87,3.31,3.31,0,0,1,2,.58,2.82,2.82,0,0,1,1.07,1.61,3.3,3.3,0,0,1,3.38-2.19A3.05,3.05,0,0,1,357.81,389.63Z"/><path class="cls-4" d="M367.93,389.91a4.9,4.9,0,0,1,1,3.31c0,.22,0,.38,0,.49h-6.87a3,3,0,0,0,1,1.86,2.88,2.88,0,0,0,2,.69,3.63,3.63,0,0,0,1.44-.28,3.57,3.57,0,0,0,1.16-.79l.83.87a4.31,4.31,0,0,1-1.54,1.07,5.17,5.17,0,0,1-2,.38,4.69,4.69,0,0,1-2.28-.55,4,4,0,0,1-1.54-1.55,4.65,4.65,0,0,1-.55-2.29,4.57,4.57,0,0,1,.55-2.27,4.09,4.09,0,0,1,1.53-1.56,4.43,4.43,0,0,1,2.25-.57A3.85,3.85,0,0,1,367.93,389.91Zm-.35,2.62a2.58,2.58,0,0,0-.79-1.86,2.62,2.62,0,0,0-1.9-.68,2.73,2.73,0,0,0-1.91.69,2.83,2.83,0,0,0-.91,1.85Z"/><path class="cls-4" d="M373.79,389.22a3.64,3.64,0,0,1,1.87-.5v1.48a3,3,0,0,0-2.15.69,2.86,2.86,0,0,0-.93,2v4.58h-1.53v-8.69h1.53v1.87A3.14,3.14,0,0,1,373.79,389.22Z"/><path class="cls-4" d="M248.94,407.35a4.46,4.46,0,0,0-4,.21,4.43,4.43,0,0,0-1.61,6,4.4,4.4,0,0,0,3.84,2.2,4.43,4.43,0,0,0,1.77-.37,5.19,5.19,0,0,0,1.55-1l.95,1a6.45,6.45,0,0,1-2,1.33,5.84,5.84,0,0,1-2.33.49,6,6,0,0,1-3-.78,5.82,5.82,0,0,1-2.94-5.1,5.68,5.68,0,0,1,.8-2.95,5.81,5.81,0,0,1,2.18-2.11,6.15,6.15,0,0,1,3-.77,6.23,6.23,0,0,1,2.33.45,5.73,5.73,0,0,1,1.94,1.27l-.93,1.14A4.83,4.83,0,0,0,248.94,407.35Z"/><path class="cls-4" d="M260.8,409.32a3.4,3.4,0,0,1,.87,2.47v5.37h-1.53v-5a2.31,2.31,0,0,0-.62-1.71,2.29,2.29,0,0,0-1.7-.62,2.57,2.57,0,0,0-2,.86,3.15,3.15,0,0,0-.74,2.16v4.27h-1.53V405h1.53v5.37a3.36,3.36,0,0,1,3.32-1.92A3.21,3.21,0,0,1,260.8,409.32Z"/><path class="cls-4" d="M265.83,405.29a1,1,0,0,1,.27.71,1,1,0,0,1-.27.7.9.9,0,0,1-.68.28.88.88,0,0,1-.68-.28,1,1,0,0,1-.27-.7,1,1,0,0,1,.27-.71.88.88,0,0,1,.68-.28A.9.9,0,0,1,265.83,405.29Zm-1.44,3.19h1.53v8.68h-1.53Z"/><path class="cls-4" d="M272.5,409.79a3,3,0,0,0-1.51.38,2.64,2.64,0,0,0-1.05,1.07,3.25,3.25,0,0,0-.37,1.59,3.39,3.39,0,0,0,.36,1.59,2.79,2.79,0,0,0,1,1.08,2.92,2.92,0,0,0,1.49.38,3.83,3.83,0,0,0,1.51-.28,2.84,2.84,0,0,0,1.12-.8l.87.89a3.88,3.88,0,0,1-1.51,1.13,5.15,5.15,0,0,1-2.06.39,4.42,4.42,0,0,1-2.25-.56,4,4,0,0,1-1.53-1.55,4.57,4.57,0,0,1-.55-2.27,4.65,4.65,0,0,1,.55-2.29,4,4,0,0,1,1.53-1.55,4.42,4.42,0,0,1,2.25-.56,5.55,5.55,0,0,1,2,.33,3.8,3.8,0,0,1,1.47,1l-.84,1.05A3.42,3.42,0,0,0,272.5,409.79Z"/><path class="cls-4" d="M283,417.16V416a3.58,3.58,0,0,1-3,1.28,3.44,3.44,0,0,1-1.58-.35,2.51,2.51,0,0,1-1.06-.95,2.61,2.61,0,0,1-.36-1.36,2.22,2.22,0,0,1,.86-1.85,3.85,3.85,0,0,1,2.4-.7H283v-.41a1.83,1.83,0,0,0-.56-1.42,2.46,2.46,0,0,0-1.66-.5,4.69,4.69,0,0,0-2.67.94l-.64-1.05a7.64,7.64,0,0,1,1.73-.88,5.92,5.92,0,0,1,1.9-.27,3.63,3.63,0,0,1,2.51.79,2.9,2.9,0,0,1,.9,2.23l0,5.71Zm-.91-1.71a2.07,2.07,0,0,0,.89-1.37v-.87h-2.54a3,3,0,0,0-1.54.31,1.08,1.08,0,0,0-.5,1,1.28,1.28,0,0,0,.51,1.07,2.18,2.18,0,0,0,1.36.39A3.17,3.17,0,0,0,282.09,415.45Z"/><path class="cls-4" d="M294.92,408.48v7.8a4.18,4.18,0,0,1-.55,2.18,3.72,3.72,0,0,1-1.55,1.44,5.22,5.22,0,0,1-2.33.5,5.93,5.93,0,0,1-3.58-1.22l.67-1.11a4.68,4.68,0,0,0,1.33.78,4.31,4.31,0,0,0,1.51.25,3,3,0,0,0,2.15-.75,2.64,2.64,0,0,0,.81-2v-1.22a3.25,3.25,0,0,1-1.25,1.22,3.7,3.7,0,0,1-1.81.44,4,4,0,0,1-2.06-.53,3.7,3.7,0,0,1-1.39-1.49,4.67,4.67,0,0,1-.49-2.18,4.56,4.56,0,0,1,.49-2.16,3.62,3.62,0,0,1,1.39-1.46,4,4,0,0,1,2.06-.52,3.79,3.79,0,0,1,1.82.42,3.23,3.23,0,0,1,1.24,1.22v-1.59Zm-2.87,6.68a2.63,2.63,0,0,0,1-1,3.15,3.15,0,0,0,.36-1.51,3.09,3.09,0,0,0-.36-1.51,2.59,2.59,0,0,0-1-1.05,2.9,2.9,0,0,0-2.87,0,2.64,2.64,0,0,0-1,1.05,3.09,3.09,0,0,0-.36,1.51,3,3,0,0,0,.78,2.11,2.67,2.67,0,0,0,2,.82A2.75,2.75,0,0,0,292.05,415.16Z"/><path class="cls-4" d="M303.63,409a4.06,4.06,0,0,1,1.58,1.55,4.9,4.9,0,0,1,0,4.55,4,4,0,0,1-1.58,1.56,5.07,5.07,0,0,1-4.63,0,4.06,4.06,0,0,1-1.58-1.55,4.92,4.92,0,0,1,0-4.56A4.06,4.06,0,0,1,299,409a5.07,5.07,0,0,1,4.63,0Zm-3.83,1.16a2.77,2.77,0,0,0-1,1.09,3.33,3.33,0,0,0-.37,1.59,3.38,3.38,0,0,0,.37,1.61,2.71,2.71,0,0,0,1,1.09,3.14,3.14,0,0,0,3,0,2.71,2.71,0,0,0,1-1.09,3.38,3.38,0,0,0,.37-1.61,3.33,3.33,0,0,0-.37-1.59,2.77,2.77,0,0,0-1-1.09,3.14,3.14,0,0,0-3,0Z"/><path class="cls-4" d="M249,428.69a3.78,3.78,0,0,1,1.48,1.56,5.33,5.33,0,0,1,0,4.57,3.79,3.79,0,0,1-1.47,1.55,4.15,4.15,0,0,1-2.15.55,3.92,3.92,0,0,1-1.94-.46,3.35,3.35,0,0,1-1.32-1.32v4.91h-1.52V428.18h1.52v1.73a3.39,3.39,0,0,1,1.31-1.32,3.94,3.94,0,0,1,1.91-.46A4.25,4.25,0,0,1,249,428.69Zm-1,6.5a2.67,2.67,0,0,0,1-1.1,3.58,3.58,0,0,0,0-3.17,2.78,2.78,0,0,0-2.53-1.49,3,3,0,0,0-1.51.39,2.82,2.82,0,0,0-1,1.1,3.35,3.35,0,0,0-.38,1.58,3.32,3.32,0,0,0,.38,1.6,2.73,2.73,0,0,0,1,1.09,2.87,2.87,0,0,0,1.51.4A2.83,2.83,0,0,0,248,435.19Z"/><path class="cls-4" d="M258.43,436.87v-1.22a3.54,3.54,0,0,1-3,1.28,3.44,3.44,0,0,1-1.58-.34,2.51,2.51,0,0,1-1.42-2.32,2.23,2.23,0,0,1,.86-1.84,3.84,3.84,0,0,1,2.41-.7h2.76v-.41a1.79,1.79,0,0,0-.57-1.42,2.4,2.4,0,0,0-1.65-.5,4.75,4.75,0,0,0-2.68.93l-.64-1.05a8.31,8.31,0,0,1,1.73-.88,6,6,0,0,1,1.9-.27,3.64,3.64,0,0,1,2.51.8,2.88,2.88,0,0,1,.91,2.22v5.72Zm-.91-1.72a2,2,0,0,0,.9-1.37v-.87h-2.55a3.09,3.09,0,0,0-1.54.31,1.09,1.09,0,0,0-.5,1,1.29,1.29,0,0,0,.51,1.07,2.21,2.21,0,0,0,1.37.39A3.07,3.07,0,0,0,257.52,435.15Z"/><path class="cls-4" d="M265.41,428.63a3.64,3.64,0,0,1,1.87-.5v1.48a3,3,0,0,0-2.15.69,2.88,2.88,0,0,0-.93,2v4.58h-1.53v-8.69h1.53v1.87A3.14,3.14,0,0,1,265.41,428.63Z"/><path class="cls-4" d="M273.61,436.29a3.73,3.73,0,0,1-2,.64,2.33,2.33,0,0,1-1.68-.61,2.49,2.49,0,0,1-.64-1.86v-4.82H268v-1.16h1.23v-2.33h1.55v2.33h2.66v1.16H270.8v4.54a1.57,1.57,0,0,0,.26,1,1,1,0,0,0,.79.31,2.68,2.68,0,0,0,1.34-.41Z"/><path class="cls-4" d="M276.9,425a1,1,0,0,1,.27.7,1,1,0,0,1-.27.71,1,1,0,0,1-1.37,0,1,1,0,0,1-.27-.71,1,1,0,0,1,.27-.7,1,1,0,0,1,1.37,0Zm-1.44,3.18H277v8.69h-1.53Z"/><path class="cls-4" d="M283.57,429.5a3.06,3.06,0,0,0-1.52.37,2.74,2.74,0,0,0-1,1.07,3.28,3.28,0,0,0-.38,1.59,3.4,3.4,0,0,0,.37,1.6,2.7,2.7,0,0,0,1,1.07,2.83,2.83,0,0,0,1.49.39,3.87,3.87,0,0,0,1.51-.28,2.86,2.86,0,0,0,1.11-.81l.87.89a3.78,3.78,0,0,1-1.5,1.13,5,5,0,0,1-2.06.4,4.52,4.52,0,0,1-2.25-.56,3.87,3.87,0,0,1-1.53-1.55,4.58,4.58,0,0,1-.55-2.28,4.63,4.63,0,0,1,.55-2.28,3.83,3.83,0,0,1,1.53-1.56,4.52,4.52,0,0,1,2.25-.56,5.63,5.63,0,0,1,2,.34,3.77,3.77,0,0,1,1.47,1l-.84,1.05A3.42,3.42,0,0,0,283.57,429.5Z"/><path class="cls-4" d="M290.63,425a1,1,0,0,1,.27.7,1,1,0,0,1-.27.71,1,1,0,0,1-.69.28.94.94,0,0,1-.68-.28,1,1,0,0,1-.27-.71,1,1,0,0,1,.27-.7.9.9,0,0,1,.68-.28A.92.92,0,0,1,290.63,425Zm-1.44,3.18h1.52v8.69h-1.52Z"/><path class="cls-4" d="M300.68,428.69a3.78,3.78,0,0,1,1.48,1.56,5.24,5.24,0,0,1,0,4.57,3.77,3.77,0,0,1-1.46,1.55,4.18,4.18,0,0,1-2.16.55,3.92,3.92,0,0,1-1.94-.46,3.26,3.26,0,0,1-1.31-1.32v4.91h-1.53V428.18h1.53v1.73a3.3,3.3,0,0,1,1.3-1.32,4,4,0,0,1,1.92-.46A4.19,4.19,0,0,1,300.68,428.69Zm-1,6.5a2.69,2.69,0,0,0,1-1.1,3.45,3.45,0,0,0,.37-1.59,3.35,3.35,0,0,0-.38-1.58,2.78,2.78,0,0,0-2.53-1.49,2.89,2.89,0,0,0-1.5.39,2.85,2.85,0,0,0-1.05,1.1,3.6,3.6,0,0,0,0,3.18,2.76,2.76,0,0,0,1.05,1.09,3,3,0,0,0,3,0Z"/><path class="cls-4" d="M310.13,436.87v-1.22a3.55,3.55,0,0,1-3,1.28,3.48,3.48,0,0,1-1.59-.34,2.62,2.62,0,0,1-1.05-.95,2.65,2.65,0,0,1-.37-1.37,2.23,2.23,0,0,1,.86-1.84,3.84,3.84,0,0,1,2.41-.7h2.76v-.41a1.79,1.79,0,0,0-.57-1.42,2.4,2.4,0,0,0-1.65-.5,4.77,4.77,0,0,0-2.68.93l-.64-1.05a8.37,8.37,0,0,1,1.74-.88,5.9,5.9,0,0,1,1.89-.27,3.65,3.65,0,0,1,2.52.8,2.87,2.87,0,0,1,.9,2.22l0,5.72Zm-.92-1.72a2,2,0,0,0,.9-1.37v-.87h-2.55a3,3,0,0,0-1.53.31,1.07,1.07,0,0,0-.5,1,1.29,1.29,0,0,0,.51,1.07,2.18,2.18,0,0,0,1.36.39A3.07,3.07,0,0,0,309.21,435.15Z"/><path class="cls-4" d="M321.59,429a3.4,3.4,0,0,1,.87,2.47v5.37h-1.53v-5a2.34,2.34,0,0,0-.62-1.72,2.28,2.28,0,0,0-1.7-.61,2.61,2.61,0,0,0-1.89.75,2.85,2.85,0,0,0-.83,1.89v4.65h-1.53v-8.69h1.53V430a3.36,3.36,0,0,1,3.3-1.89A3.18,3.18,0,0,1,321.59,429Z"/><path class="cls-4" d="M329.85,436.29a3.73,3.73,0,0,1-2,.64,2.33,2.33,0,0,1-1.68-.61,2.49,2.49,0,0,1-.63-1.86v-4.82h-1.24v-1.16h1.24v-2.33H327v2.33h2.66v1.16H327v4.54a1.64,1.64,0,0,0,.26,1,1,1,0,0,0,.79.31,2.74,2.74,0,0,0,1.35-.41Z"/><path class="cls-4" d="M335.26,429.58a4.33,4.33,0,0,0-1.24-.2,2.12,2.12,0,0,0-1.11.26.85.85,0,0,0-.42.78.86.86,0,0,0,.47.79,6.36,6.36,0,0,0,1.42.55,11.55,11.55,0,0,1,1.48.53,2.5,2.5,0,0,1,1,.77,2.38,2.38,0,0,1-.52,3.22,4,4,0,0,1-2.31.64,6,6,0,0,1-1.88-.31,4.26,4.26,0,0,1-1.53-.89l.57-1.12a4.1,4.1,0,0,0,1.34.79,4.39,4.39,0,0,0,1.55.3,2.42,2.42,0,0,0,1.22-.28,1,1,0,0,0,.46-.86,1,1,0,0,0-.49-.88,6,6,0,0,0-1.47-.59,10.74,10.74,0,0,1-1.42-.5,2.42,2.42,0,0,1-.93-.75,2,2,0,0,1-.39-1.28,2.06,2.06,0,0,1,.89-1.83,3.86,3.86,0,0,1,2.21-.6,5.38,5.38,0,0,1,1.55.22,4.93,4.93,0,0,1,1.33.6l-.56,1.16A5.11,5.11,0,0,0,335.26,429.58Z"/><path class="cls-2" d="M442.05,25H80.51A13.51,13.51,0,0,0,67,38.51V79H455.56V38.51A13.51,13.51,0,0,0,442.05,25Z"/><path class="cls-4" d="M167.51,47.11a4.89,4.89,0,0,0-2.53-.8,4,4,0,0,0-2.24.65,4.3,4.3,0,0,0-1.56,1.78,5.82,5.82,0,0,0-.55,2.58,5.94,5.94,0,0,0,.55,2.6,4.38,4.38,0,0,0,1.56,1.81,4,4,0,0,0,2.24.66,5.26,5.26,0,0,0,2.44-.68,8.5,8.5,0,0,0,2.33-1.78l4,4.29a13.35,13.35,0,0,1-4.25,3.11,11.65,11.65,0,0,1-4.9,1.15,11.48,11.48,0,0,1-5.72-1.43,10.14,10.14,0,0,1-4-4,11.26,11.26,0,0,1-1.44-5.68A10.7,10.7,0,0,1,155,45.82,10.41,10.41,0,0,1,159,41.93a12.26,12.26,0,0,1,10.7-.35,12,12,0,0,1,4.05,2.84l-4,4.77A7.51,7.51,0,0,0,167.51,47.11Z"/><path class="cls-4" d="M175.2,41h7V62h-7Z"/><path class="cls-4" d="M183.84,41h18.93v5.49h-6V62h-7V46.46h-6Z"/><path class="cls-4" d="M227.28,41l-7.53,14.49V62h-7V55.61L205.11,41H212l4.23,8.1,4.08-8.1Z"/><path class="cls-4" d="M256.8,62h-8.31l-4.44-7.32-2,2.22V62h-7V41h7v7.68L248.34,41h8l-7.53,8.4Z"/><path class="cls-4" d="M258.33,41h17.79v5.28H265.29v2.58h9.84v5.28h-9.84v2.61h11.1V62H258.33Z"/><path class="cls-4" d="M299.43,41,291.9,55.46V62h-7V55.61L277.26,41h6.93l4.23,8.1L292.5,41Z"/><path class="cls-4" d="M306.69,41h7V62h-7Z"/><path class="cls-4" d="M332.1,42.26a9.39,9.39,0,0,1,4,3.67,10.71,10.71,0,0,1,1.41,5.54A10.48,10.48,0,0,1,336.06,57,9.63,9.63,0,0,1,332,60.7,13.83,13.83,0,0,1,325.8,62h-9.12V41h9.39A13.32,13.32,0,0,1,332.1,42.26Zm-2.83,13a5.66,5.66,0,0,0,1.12-3.69,5.54,5.54,0,0,0-1.21-3.75,4.09,4.09,0,0,0-3.26-1.41h-2.28V56.6h2.61A3.7,3.7,0,0,0,329.27,55.22Z"/><circle class="cls-3" cx="121.5" cy="51.5" r="13.5"/><rect class="cls-5" x="522" width="174" height="459"/><polygon class="cls-1" points="521 28 521 49 521 70 546.2 49 521 28"/><circle class="cls-4" cx="609" cy="137" r="55"/><circle class="cls-4" cx="609" cy="261" r="55"/><circle class="cls-4" cx="609" cy="385" r="55"/><path class="cls-2" d="M455.47,201.19Q450.22,185.08,445,169c-.49-1.51-1-3-1.46-4.52-.25-.79-.56-1.13-1.51-.93q-20.3,4.25-40.59,8.39c-1.17.24-2.33.5-3.73.81a13,13,0,0,1,2.53-3.21q13.5-15.28,27.08-30.51c.75-.84.89-1.33.06-2.26Q413.21,120.89,399.18,105a3.52,3.52,0,0,1-1.06-1.61l13.94,2.93,16.35,3.47c4.25.9,8.51,1.73,12.73,2.73,1.52.36,2.05-.1,2.51-1.5,3.88-11.83,7.84-23.63,11.77-35.45a2.25,2.25,0,0,0,.29-1.41q0-17.89,0-35.8c0-.49.24-1.15-.55-1.34-.47,1.28-1,2.55-1.4,3.84q-9.27,27.75-18.5,55.5c-.49,1.47-1.07,1.71-2.53,1.4q-30.78-6.57-61.57-13l-7.69-1.59c.52.67.73,1,1,1.25q6.46,7.32,12.93,14.63,16.47,18.59,33,37.15c.84.95.94,1.58,0,2.57-3.67,4-7.28,8.11-10.89,12.19Q381.71,171,363.93,191.05c-.29.32-.8.56-.65,1.15a1.67,1.67,0,0,0,.36,0l42.54-8.77,27.12-5.62c.9-.19,1.55-.33,1.94.9,3.11,9.63,6.32,19.22,9.48,28.83,2,6.18,4,12.38,6,18.55,1.41,4.31,2.88,8.59,4.33,12.88.81-.49.65-1.31.65-2.05q0-17,0-34A2.64,2.64,0,0,0,455.47,201.19Z"/><path class="cls-2" d="M437.71,126.59c3.74.41,7.35,1.52,11,2.18l1.12.22c2.94.62,2.86.6,3.66-2.31a29.52,29.52,0,0,1,2.14-5.9l0-12c0-.43.09-.89-.27-1.24-.23.55-.5,1.08-.69,1.64q-2.37,7-4.69,14c-.28.84-.6,1.29-1.61,1.07-6.35-1.38-12.71-2.71-19.07-4.06-1.33-.28-2.67-.54-4.41-.89.68.82,1,1.29,1.43,1.73,4.68,5.27,9.34,10.55,14.06,15.77.9,1,1,1.62,0,2.68-4.09,4.48-8.11,9-12.1,13.6a21.56,21.56,0,0,0-3.32,4.07l7.26-1.49c5.14-1.07,10.28-2.1,15.4-3.23,1.41-.31,2.23-.21,2.53,1.44a23.84,23.84,0,0,0,1.26,3.89c1.34,3.63,2.18,7.43,3.78,11a2.4,2.4,0,0,0,.42-1.54c0-3.81,0-7.61,0-11.42-1.38-2.17-1.86-4.67-2.49-7.09-.35-1.32-.92-1.68-2.17-1.39-4.3,1-8.67,1.64-12.91,2.87a5.07,5.07,0,0,1-1.26-.07l7.06-8c.87-1,1.71-2,2.64-2.91.75-.74.7-1.26,0-2-2.8-3.06-5.53-6.19-8.27-9.31-.28-.32-.49-.7-.74-1-.17,0-.29-.2-.18-.34S437.65,126.38,437.71,126.59Z"/><rect class="cls-1" x="215" y="96" width="133" height="11" rx="4.5" ry="4.5"/><rect class="cls-1" x="215" y="116" width="51" height="9" rx="4.5" ry="4.5"/><rect class="cls-1" x="215" y="134" width="133" height="11" rx="4.5" ry="4.5"/><rect class="cls-1" x="215" y="154" width="51" height="9" rx="4.5" ry="4.5"/><rect class="cls-1" x="215" y="214" width="51" height="9" rx="4.5" ry="4.5"/><rect class="cls-1" x="215" y="229" width="51" height="9" rx="4.5" ry="4.5"/><rect class="cls-1" x="297" y="214" width="51" height="9" rx="4.5" ry="4.5"/><rect class="cls-1" x="297" y="229" width="51" height="9" rx="4.5" ry="4.5"/><rect class="cls-1" x="215" y="172" width="133" height="11" rx="4.5" ry="4.5"/><rect class="cls-1" x="215" y="190" width="133" height="11" rx="4.5" ry="4.5"/><rect class="cls-1" x="108" y="95.5" width="86" height="105.5" rx="13.92" ry="13.92"/><ellipse class="cls-3" cx="151.5" cy="142" rx="24.5" ry="32"/><path class="cls-3" d="M154,172s-32,13-32,29h32Z"/><path class="cls-3" d="M151,172s32,13,32,29H151Z"/><polygon class="cls-3" points="153 166 150 166 143 166 143.5 181.5 150.48 180.77 150.5 181.5 160 180.5 160 166 153 166"/><polygon class="cls-1" points="107.6 284 86.6 284 65.6 284 86.6 309.2 107.6 284"/><path class="cls-4" d="M242.54,325.9h22.92l0,6H249.74v7.83h14.4v6h-14.4v12.07h-7.2Z"/><path class="cls-4" d="M289.24,357.79l-5.05-9.11h-7.34v9.11h-7.2V325.9H283.5q6.24,0,9.66,2.89a10.13,10.13,0,0,1,3.42,8.18,12.31,12.31,0,0,1-1.53,6.31,9.81,9.81,0,0,1-4.44,4l6.79,10.52Zm-12.39-15.12h6.65a6.94,6.94,0,0,0,4.63-1.39,5.08,5.08,0,0,0,1.61-4.08,4.89,4.89,0,0,0-1.61-4,7.1,7.1,0,0,0-4.63-1.34h-6.65Z"/><path class="cls-4" d="M302.64,325.9h24.28v6H309.84v6.92h15.35v6H309.84v7.06h17.58v6H302.64Z"/><path class="cls-4" d="M333.07,325.9h24.29v6H340.27v6.92h15.36v6H340.27v7.06h17.59v6H333.07Z"/><path class="cls-4" d="M549,53a4,4,0,0,0,3,1.14A3.77,3.77,0,0,0,554.81,53a4.31,4.31,0,0,0,1.07-3.11V39.14H560V49.88a8.51,8.51,0,0,1-1,4.17,6.62,6.62,0,0,1-2.81,2.71,9.14,9.14,0,0,1-4.31,1,9.35,9.35,0,0,1-4.34-1,6.7,6.7,0,0,1-2.84-2.71,8.3,8.3,0,0,1-1-4.17V39.14h4.13V49.88A4.21,4.21,0,0,0,549,53Z"/><path class="cls-4" d="M572.77,42.86a9,9,0,0,0-2.7-.51,3.12,3.12,0,0,0-1.7.4,1.26,1.26,0,0,0-.63,1.15,1.6,1.6,0,0,0,.91,1.47,13.93,13.93,0,0,0,2.78,1.06,24.11,24.11,0,0,1,3.09,1.1,5.41,5.41,0,0,1,2.08,1.64,4.55,4.55,0,0,1,.86,2.9,5,5,0,0,1-.92,3A5.66,5.66,0,0,1,574,57a9.71,9.71,0,0,1-3.69.66,12.67,12.67,0,0,1-4.36-.79,11.87,11.87,0,0,1-3.71-2.14l1.65-3.37a11.09,11.09,0,0,0,3.18,2,8.54,8.54,0,0,0,3.3.76,3.67,3.67,0,0,0,2-.47,1.55,1.55,0,0,0,.71-1.36,1.52,1.52,0,0,0-.48-1.16,3.56,3.56,0,0,0-1.23-.75c-.49-.19-1.18-.41-2.05-.65a23.89,23.89,0,0,1-3.07-1,5.51,5.51,0,0,1-2-1.59,4.42,4.42,0,0,1-.86-2.85,4.86,4.86,0,0,1,.89-2.89,5.64,5.64,0,0,1,2.48-1.9,9.45,9.45,0,0,1,3.71-.67,12.73,12.73,0,0,1,3.71.55,12.33,12.33,0,0,1,3.24,1.46l-1.59,3.43A13.6,13.6,0,0,0,572.77,42.86Z"/><path class="cls-4" d="M580.36,39.14h13.93v3.42h-9.8v4h8.81V50h-8.81v4h10.09v3.42H580.36Z"/><path class="cls-4" d="M610.57,40.3A8.52,8.52,0,0,1,614,43.54a9.25,9.25,0,0,1,1.21,4.75A9.06,9.06,0,0,1,614,53a8.65,8.65,0,0,1-3.46,3.24,10.83,10.83,0,0,1-5.07,1.16h-7.6V39.14h7.76A10.58,10.58,0,0,1,610.57,40.3Zm-2.16,12.94a5.08,5.08,0,0,0,1.9-2,6.21,6.21,0,0,0,.68-2.93,6,6,0,0,0-.72-3,5.24,5.24,0,0,0-2-2,5.51,5.51,0,0,0-2.81-.71H602V54h3.73A5.25,5.25,0,0,0,608.41,53.24Z"/><path class="cls-4" d="M624,39.14h13.15l0,3.42h-9v4.5h8.26v3.45h-8.26v6.92H624Z"/><path class="cls-4" d="M653.08,40.08a9.35,9.35,0,0,1,3.54,3.38,9.59,9.59,0,0,1,0,9.61,9.43,9.43,0,0,1-3.54,3.41,10.66,10.66,0,0,1-10,0,9.26,9.26,0,0,1-3.54-3.4,9.55,9.55,0,0,1,0-9.62,9.22,9.22,0,0,1,3.52-3.38,10.78,10.78,0,0,1,10,0Zm-7.76,3.15a5.64,5.64,0,0,0-2.07,2.1,5.89,5.89,0,0,0-.75,2.93,5.72,5.72,0,0,0,.77,3,5.9,5.9,0,0,0,2.06,2.12,5.34,5.34,0,0,0,2.81.78,5.27,5.27,0,0,0,2.78-.77,5.47,5.47,0,0,0,2-2.12,6.16,6.16,0,0,0,0-5.89,5.49,5.49,0,0,0-2-2.1,5.27,5.27,0,0,0-2.78-.77A5.49,5.49,0,0,0,645.32,43.23Z"/><path class="cls-4" d="M671.86,57.43,669,52.2h-4.2v5.23h-4.13V39.14h7.94a8.31,8.31,0,0,1,5.54,1.66,5.8,5.8,0,0,1,2,4.69,7,7,0,0,1-.88,3.62,5.59,5.59,0,0,1-2.54,2.28l3.89,6Zm-7.1-8.68h3.81a4,4,0,0,0,2.65-.79,2.91,2.91,0,0,0,.93-2.34,2.82,2.82,0,0,0-.93-2.29,4.06,4.06,0,0,0-2.65-.77h-3.81Z"/><path class="cls-2" d="M558.12,145s-4.68,2.49-4.1,9.67,4.46,10.49,10.46,12.39S631.09,188,631.09,188L664,142l-51-8.24Z"/><polygon class="cls-6" points="629.67 185.18 662.09 141.73 662.87 128.96 630.03 164.85 622 173.91 629.67 185.18"/><path class="cls-4" d="M561.19,145.93s-5.72,1.69-5.05,7.34,4,9.95,12.47,13,61.11,19.07,61.11,19.07-4.12-16.07,3.25-19.7Z"/><polyline class="cls-3" points="568.17 138.19 557.12 145.68 632.94 166.16 667.19 123.86 656 123.17 567.66 138.16"/><path class="cls-2" d="M558.65,120.76a7.35,7.35,0,0,0-3.07,8.49c1.69,5.71,3.6,7.87,9.1,9.74s63.46,22.28,63.46,22.28l35.4-36.1-3.53-.73-32.58,31.69-63.17-26.86-1.09-7.21Z"/><polygon class="cls-6" points="626.68 158.91 661.54 124.53 662.32 111.82 624.56 144.72 626.68 158.91"/><path class="cls-4" d="M565.33,120.15s-6.74,1.62-7.05,6.71,4,9.43,4,9.43l64.45,22.86s-3.23-14,3-16.15Z"/><polygon class="cls-1" points="666.03 109.5 629.71 144.01 558.65 120.76 605.63 95.57 666.03 109.5"/><polygon class="cls-6" points="562.07 152.36 560.39 154.81 591.1 161.8 591.22 159.77 562.07 152.36"/><path class="cls-3" d="M562.31,152.63s-2.61.86-2.35,5,.4,18.4.4,18.4l4.23,5.88,3.34-4.39s-2.56-21.69.52-23.5Z"/><path class="cls-2" d="M641.33,93.64,595,84A1.76,1.76,0,0,0,593,85.41l-1.07,5.18-4.21,20.29A1.76,1.76,0,0,0,589,113l46.29,9.6a1.75,1.75,0,0,0,2.08-1.37l4.21-20.29,1.08-5.18A1.77,1.77,0,0,0,641.33,93.64Z"/><path class="cls-3" d="M635.25,96.21l-35.66-7.4a1.3,1.3,0,0,0-1.58.91l-.74,3.58-2.9,14a1.29,1.29,0,0,0,1.08,1.47l35.67,7.4a1.3,1.3,0,0,0,1.58-.92l2.9-14,.74-3.57A1.29,1.29,0,0,0,635.25,96.21Z"/><path class="cls-4" d="M629.86,107.42l-29.6-6.14c-.61-.12-1.13-.07-1.17.11l-.22,1-.83,4c0,.19.43.44,1,.57l29.59,6.14c.61.13,1.14.08,1.18-.11l.83-4,.21-1C630.93,107.8,630.47,107.55,629.86,107.42Z"/><circle class="cls-2" cx="628.89" cy="100.2" r="3.54"/><path class="cls-1" d="M590.84,358.88l-.22-5.95s.44-1.54,1.1-1.76.88.22.88.22-.44-1.1,0-1.54,4.41-4.19,13.89-4.85a1.1,1.1,0,0,1,.88,1.32,10,10,0,0,1,3.75,0,1.07,1.07,0,0,1,1.1-1.32c1.32,0,13.66,2.2,14.1,4.19s0,1.54,0,1.54h.88l.44-.44s1.33.44,1.33,2.86.22,6.18.22,6.18L611.34,354l-15.43,2.64"/><path class="cls-2" d="M593.7,365.06s-8.15-4-.44-8.38,27.33-5.95,36.37,2.65S593.7,365.06,593.7,365.06Z"/><path class="cls-6" d="M597.93,357.54c-10.55,3.28-4.23,8.4-4.23,8.4Z"/><path class="cls-6" d="M622.9,358c10.54,3.28,4.22,8.4,4.22,8.4Z"/><path class="cls-3" d="M593.48,360.87v60.38s4.41,3.75,17.86,3.75,16.08-3.75,16.08-3.75v-61s-4.84-4.41-18.29-4.41S593.48,360.87,593.48,360.87Z"/><path class="cls-4" d="M620.22,396l4.87-7.45h-4.78l-3,4.64-2.82-4.64h0l-4-6.2a6,6,0,0,0,2.72-2.44,7.6,7.6,0,0,0,.93-3.87,6.18,6.18,0,0,0-2.09-5,8.87,8.87,0,0,0-5.91-1.77h-8.48v19.52h4.41v-5.58h4.49l3,5.34h0l.07.1.07.14h0l4.76,7.24-5.29,7.83H614l3.36-5,3.07,5h5ZM609,378.66a4.2,4.2,0,0,1-2.83.85h-4.07V372.9h4.07a4.36,4.36,0,0,1,2.83.82,3,3,0,0,1,1,2.44A3.12,3.12,0,0,1,609,378.66Z"/><path class="cls-2" d="M579.34,291.51S585.47,305,597.73,305h13.89v-9.4Z"/><path class="cls-2" d="M643.5,291.51S637.37,305,625.11,305h-13.9v-9.4Z"/><path class="cls-3" d="M616.53,300.91h-23.3s-20-3.27-16.75-20.43,9-53.53,9-53.53,2.45-6.95,27-6.95,23.7,8.58,24.11,9.81,9,49.44,9,49.44S651.26,300.91,616.53,300.91Z"/><path class="cls-1" d="M612.44,289.88h-18s-11.85-3.27-10.22-15.53,5.31-45,5.31-45,.41-6.54,20-6.54,21.66,4.9,21.66,4.9l9.4,57.22"/><path class="cls-3" d="M589.8,261.27c-.5,4-1.08,8.74-1.47,12.26-.82,7.36,4.49,7.77,4.49,7.77h40.46s-.45-12.3-.68-20Z"/><path class="cls-2" d="M632.46,255.55c0-3.27-1.63-4.49-1.63-4.49H596.91c-6.13,0-6.13,2.45-6.13,2.45s-.44,3.43-1,7.76h42.8C632.52,258.56,632.46,256.4,632.46,255.55Z"/><path class="cls-4" d="M599,256.05l16,46.59a1.84,1.84,0,0,0,2.34,1.14l5.21-1.79,20.43-7a1.84,1.84,0,0,0,1.14-2.34l-16-46.59a1.84,1.84,0,0,0-2.34-1.14l-20.42,7-5.22,1.79A1.84,1.84,0,0,0,599,256.05Z"/><path class="cls-2" d="M599,256.05l16,46.59a1.84,1.84,0,0,0,2.34,1.14l5.21-1.79-17.17-50.06-5.22,1.79A1.84,1.84,0,0,0,599,256.05Z"/><path class="cls-2" d="M621.08,246.54l-3.68,2.77-.52.39c-.09.07-.12.12,0,.24l2.87,4.86.27.44a1.83,1.83,0,0,1-.53-.18l-5.12-2.14c-.15-.06-.21-.06-.3.09q-1.41,2.52-2.84,5a.51.51,0,0,1-.16.21c-.09-.65-.17-1.29-.24-1.93s-.19-1.5-.28-2.26c-.07-.58-.15-1.17-.21-1.76,0-.21-.1-.26-.3-.25l-5.09,0a.35.35,0,0,0-.2,0l-4.61,1.58c-.06,0-.16,0-.15.13a5.23,5.23,0,0,0,.56,0l8-.06c.21,0,.27.06.29.26.34,2.84.69,5.67,1,8.51,0,.33.09.67.14,1.06l.12-.18c.43-.77.87-1.54,1.31-2.31l3.33-5.9c.08-.15.16-.19.33-.11l2.05.86,6.74,2.81c.06,0,.11.08.18,0a.09.09,0,0,0,0-.05l-3-5.09-1.92-3.25c-.07-.1-.11-.18,0-.29,1.1-.82,2.19-1.66,3.29-2.49l2.13-1.6,1.46-1.12c-.1-.09-.19,0-.29,0l-4.38,1.51A.33.33,0,0,0,621.08,246.54Z"/><path class="cls-2" d="M612.26,252.12c-.12-.5-.13-1-.21-1.52a.77.77,0,0,1,0-.15c0-.41,0-.4-.46-.37a3.54,3.54,0,0,1-.86,0l-1.54.53s-.12,0-.15.09l.25,0,2,0c.13,0,.2,0,.21.16.11.88.22,1.76.32,2.64,0,.18.05.37.08.61l.16-.26c.48-.84,1-1.67,1.41-2.51.09-.16.17-.2.35-.13q1.14.5,2.28,1a2.6,2.6,0,0,0,.68.25l-.52-.87c-.36-.61-.72-1.23-1.09-1.84-.11-.17-.13-.28.07-.39a3.54,3.54,0,0,0,.45-.34c.4-.33.86-.61,1.24-1a.31.31,0,0,0-.21,0l-1.47.5a3.14,3.14,0,0,1-.81.64c-.15.1-.17.19-.08.34.32.51.59,1,.94,1.54a1.66,1.66,0,0,1,.05.16l-1.35-.55-.49-.22c-.13-.06-.19,0-.26.09-.27.5-.55,1-.83,1.48a.76.76,0,0,1-.11.14s0,.05,0,0S612.23,252.14,612.26,252.12Z"/><circle class="cls-4" cx="605.8" cy="226.84" r="1.74"/><circle class="cls-4" cx="611.11" cy="226.84" r="1.74"/><circle class="cls-4" cx="616.42" cy="226.84" r="1.74"/><path class="cls-2" d="M596.49,230h29.1a2.46,2.46,0,0,1,2.44,2.16l1,8.58a2.46,2.46,0,0,1-2.44,2.75H595.71a2.45,2.45,0,0,1-2.44-2.68l.78-8.58A2.46,2.46,0,0,1,596.49,230Z"/><path class="cls-4" d="M611,236.66a16.3,16.3,0,0,0,.38,2.6.61.61,0,0,1-1.18.32c-.36-1.26-.28-2.58-.6-3.85a.49.49,0,0,1-.06-.29.57.57,0,0,1,.41-.74c1.31-.37,2.69-.26,4-.64a.61.61,0,0,1,.33,1.18,15.37,15.37,0,0,1-2.61.39c1.42,1,2.63,2.1,4,3.16a3.4,3.4,0,0,0,.91-2.24c0-2.37-2.75-4.29-6.13-4.29s-6.13,1.92-6.13,4.29,2.74,4.29,6.13,4.29a7.68,7.68,0,0,0,4.3-1.23C613.44,238.61,612.28,237.55,611,236.66Z"/><path class="cls-4" d="M411.29,396.8a5.5,5.5,0,0,1-2.16-2.09,6.16,6.16,0,0,1,0-6,5.5,5.5,0,0,1,2.16-2.09,6.37,6.37,0,0,1,3.09-.76,6.57,6.57,0,0,1,2.37.43,4.9,4.9,0,0,1,1.83,1.25l-.77.77a4.56,4.56,0,0,0-3.4-1.36,5.07,5.07,0,0,0-2.48.62,4.75,4.75,0,0,0,0,8.28,5.07,5.07,0,0,0,2.48.62,4.51,4.51,0,0,0,3.4-1.38l.77.78a5.05,5.05,0,0,1-1.84,1.25,6.38,6.38,0,0,1-2.38.44A6.29,6.29,0,0,1,411.29,396.8Z"/><path class="cls-4" d="M420.93,385.27h1.17v12.19h-1.17Z"/><path class="cls-4" d="M425.33,386.69a.85.85,0,0,1-.24-.6.8.8,0,0,1,.24-.57.86.86,0,0,1,.61-.25.85.85,0,0,1,.61.24.78.78,0,0,1,.24.57.86.86,0,0,1-1.46.61Zm0,2.13h1.17v8.64h-1.17Z"/><path class="cls-4" d="M431.06,397a3.94,3.94,0,0,1-1.59-1.57,4.81,4.81,0,0,1,0-4.54,4.11,4.11,0,0,1,1.59-1.56,4.65,4.65,0,0,1,2.29-.56,4.41,4.41,0,0,1,2,.44,3.28,3.28,0,0,1,1.39,1.27l-.87.59a2.84,2.84,0,0,0-1.08-1,3.29,3.29,0,0,0-1.43-.32,3.39,3.39,0,0,0-1.69.42,3,3,0,0,0-1.16,1.19,3.63,3.63,0,0,0-.42,1.76,3.55,3.55,0,0,0,.42,1.76,3,3,0,0,0,1.16,1.19,3.39,3.39,0,0,0,1.69.42,3.29,3.29,0,0,0,1.43-.32,2.59,2.59,0,0,0,1.08-.95l.87.59a3.24,3.24,0,0,1-1.4,1.27,4.3,4.3,0,0,1-2,.44A4.65,4.65,0,0,1,431.06,397Z"/><path class="cls-4" d="M442.08,393.12l-2,1.88v2.46h-1.17V385.27h1.17v8.26l5.15-4.71h1.45l-3.7,3.53,4,5.11h-1.43Z"/><path class="cls-4" d="M457.6,396.93a2.13,2.13,0,0,1-.81.45,3.14,3.14,0,0,1-1,.16,2.51,2.51,0,0,1-1.87-.66,2.48,2.48,0,0,1-.66-1.85v-5.22h-1.54v-1h1.54v-1.89h1.17v1.89H457v1h-2.62V395a1.63,1.63,0,0,0,.38,1.18,1.51,1.51,0,0,0,1.11.4,2.1,2.1,0,0,0,.7-.12,1.51,1.51,0,0,0,.58-.33Z"/><path class="cls-4" d="M466.71,389.7a3.7,3.7,0,0,1,1,2.75v5H466.5v-4.9a2.86,2.86,0,0,0-.67-2.05,2.53,2.53,0,0,0-1.92-.7,3,3,0,0,0-2.21.82,3.16,3.16,0,0,0-.81,2.3v4.53h-1.17V385.27h1.17v5.06a3.08,3.08,0,0,1,1.31-1.16,4.24,4.24,0,0,1,1.92-.42A3.54,3.54,0,0,1,466.71,389.7Z"/><path class="cls-4" d="M478.39,393.5h-7.23a3.14,3.14,0,0,0,1,2.18,3.43,3.43,0,0,0,2.36.83,3.76,3.76,0,0,0,1.48-.29,3.15,3.15,0,0,0,1.17-.85l.65.76a3.67,3.67,0,0,1-1.43,1.05,4.91,4.91,0,0,1-1.9.36,4.79,4.79,0,0,1-2.36-.57,4.14,4.14,0,0,1-1.6-1.56,4.53,4.53,0,0,1-.57-2.27,4.62,4.62,0,0,1,.55-2.27,4.11,4.11,0,0,1,1.51-1.56,4.24,4.24,0,0,1,2.16-.56,4.18,4.18,0,0,1,2.15.56,4,4,0,0,1,1.49,1.56,4.57,4.57,0,0,1,.55,2.27Zm-6.26-2.95a3.14,3.14,0,0,0-1,2.08h6.13a3.17,3.17,0,0,0-1-2.08,3,3,0,0,0-2.11-.79A2.92,2.92,0,0,0,472.13,390.55Z"/><path class="cls-4" d="M491.74,389.3a3.92,3.92,0,0,1,1.54,1.56,4.92,4.92,0,0,1,0,4.56,3.92,3.92,0,0,1-1.54,1.56,4.42,4.42,0,0,1-2.2.56,4.07,4.07,0,0,1-2-.46,3.59,3.59,0,0,1-1.38-1.33v1.71h-1.12V385.27h1.17v5.19a3.57,3.57,0,0,1,1.38-1.27,4.12,4.12,0,0,1,1.9-.44A4.52,4.52,0,0,1,491.74,389.3Zm-.64,6.79a3,3,0,0,0,1.16-1.19,3.9,3.9,0,0,0,0-3.52,3,3,0,0,0-1.16-1.19,3.26,3.26,0,0,0-1.64-.42,3.21,3.21,0,0,0-1.65.42,3,3,0,0,0-1.15,1.19,3.9,3.9,0,0,0,0,3.52,3,3,0,0,0,1.15,1.19,3.21,3.21,0,0,0,1.65.42A3.26,3.26,0,0,0,491.1,396.09Z"/><path class="cls-4" d="M501.79,389.6a3.27,3.27,0,0,1,.9,2.5v5.36h-1.11v-1.35a2.69,2.69,0,0,1-1.16,1.05,4.11,4.11,0,0,1-1.82.38,3.56,3.56,0,0,1-2.3-.69,2.25,2.25,0,0,1-.85-1.82,2.22,2.22,0,0,1,.8-1.78,3.93,3.93,0,0,1,2.53-.67h2.75v-.52a2.18,2.18,0,0,0-.63-1.7,2.55,2.55,0,0,0-1.82-.59,4.68,4.68,0,0,0-1.58.27,3.91,3.91,0,0,0-1.29.75l-.53-.87a4.62,4.62,0,0,1,1.58-.86,6.21,6.21,0,0,1,1.94-.31A3.67,3.67,0,0,1,501.79,389.6Zm-1.31,6.57a2.7,2.7,0,0,0,1-1.31v-1.41h-2.71c-1.48,0-2.22.52-2.22,1.55a1.42,1.42,0,0,0,.57,1.19,2.63,2.63,0,0,0,1.61.43A3.13,3.13,0,0,0,500.48,396.17Z"/><path class="cls-4" d="M508.2,389.2a4.09,4.09,0,0,1,2-.45v1.14l-.28,0a2.75,2.75,0,0,0-2.13.84,3.36,3.36,0,0,0-.77,2.35v4.4h-1.17v-8.64H507v1.69A2.78,2.78,0,0,1,508.2,389.2Z"/><path class="cls-4" d="M415.78,409a4,4,0,0,1,1.54,1.55,4.94,4.94,0,0,1,0,4.57,4.12,4.12,0,0,1-1.54,1.56,4.42,4.42,0,0,1-2.2.56,4.16,4.16,0,0,1-1.95-.46,3.62,3.62,0,0,1-1.39-1.33v1.7h-1.11V405h1.16v5.19a3.7,3.7,0,0,1,1.39-1.28,4.21,4.21,0,0,1,1.9-.43A4.41,4.41,0,0,1,415.78,409Zm-.64,6.78a2.93,2.93,0,0,0,1.15-1.19,3.88,3.88,0,0,0,0-3.51,2.93,2.93,0,0,0-1.15-1.19,3.45,3.45,0,0,0-3.3,0,3,3,0,0,0-1.15,1.19,4,4,0,0,0,0,3.51,3,3,0,0,0,1.15,1.19,3.45,3.45,0,0,0,3.3,0Z"/><path class="cls-4" d="M427.78,413.21h-7.23a3.12,3.12,0,0,0,1,2.17,3.43,3.43,0,0,0,2.36.83,3.59,3.59,0,0,0,1.48-.29,3.24,3.24,0,0,0,1.17-.84l.65.75a3.67,3.67,0,0,1-1.43,1.05,5.1,5.1,0,0,1-4.25-.2,4.12,4.12,0,0,1-1.61-1.57,4.5,4.5,0,0,1-.57-2.27,4.58,4.58,0,0,1,.55-2.26,4,4,0,0,1,1.51-1.56,4.24,4.24,0,0,1,2.16-.56,4.18,4.18,0,0,1,2.15.56,3.9,3.9,0,0,1,1.49,1.55,4.57,4.57,0,0,1,.55,2.27Zm-6.26-2.95a3.11,3.11,0,0,0-1,2.07h6.13a3.15,3.15,0,0,0-1-2.07,3,3,0,0,0-2.11-.8A2.93,2.93,0,0,0,421.52,410.26Z"/><path class="cls-4" d="M430.18,405h1.16v12.18h-1.16Z"/><path class="cls-4" d="M435.88,416.68a4.11,4.11,0,0,1-1.58-1.57,4.71,4.71,0,0,1,0-4.53,4,4,0,0,1,1.58-1.56,4.52,4.52,0,0,1,2.25-.56,4.58,4.58,0,0,1,2.25.56,4,4,0,0,1,1.56,1.56,4.79,4.79,0,0,1,0,4.53,4.06,4.06,0,0,1-1.56,1.57,4.48,4.48,0,0,1-2.25.57A4.43,4.43,0,0,1,435.88,416.68Zm3.9-.89a3,3,0,0,0,1.14-1.19,4,4,0,0,0,0-3.51,3,3,0,0,0-1.14-1.19,3.47,3.47,0,0,0-3.31,0,2.91,2.91,0,0,0-1.14,1.19,3.88,3.88,0,0,0,0,3.51,2.91,2.91,0,0,0,1.14,1.19,3.47,3.47,0,0,0,3.31,0Z"/><path class="cls-4" d="M457.32,408.53l-3.27,8.63H453l-2.72-7.07-2.73,7.07h-1.1l-3.25-8.63h1.12l2.71,7.34,2.77-7.34h1l2.76,7.34,2.74-7.34Z"/><path class="cls-4" d="M465.1,406.29a1.72,1.72,0,0,0-.39,1.22v1h2.66v1h-2.63v7.65h-1.16v-7.65H462v-1h1.54v-1.07a2.56,2.56,0,0,1,.68-1.87,2.59,2.59,0,0,1,1.93-.69,3,3,0,0,1,.95.14,1.94,1.94,0,0,1,.77.4l-.39.87a1.91,1.91,0,0,0-1.28-.43A1.5,1.5,0,0,0,465.1,406.29Z"/><path class="cls-4" d="M470.08,416.68a4.18,4.18,0,0,1-1.58-1.57,4.79,4.79,0,0,1,0-4.53,4.08,4.08,0,0,1,1.58-1.56,4.8,4.8,0,0,1,4.5,0,4,4,0,0,1,1.57,1.56,4.79,4.79,0,0,1,0,4.53,4.08,4.08,0,0,1-1.57,1.57,4.73,4.73,0,0,1-4.5,0Zm3.9-.89a2.85,2.85,0,0,0,1.14-1.19,4,4,0,0,0,0-3.51A2.85,2.85,0,0,0,474,409.9a3.45,3.45,0,0,0-3.3,0,2.93,2.93,0,0,0-1.15,1.19,3.88,3.88,0,0,0,0,3.51,2.93,2.93,0,0,0,1.15,1.19,3.45,3.45,0,0,0,3.3,0Z"/><path class="cls-4" d="M481.44,408.9a4.21,4.21,0,0,1,2-.44v1.13h-.28a2.8,2.8,0,0,0-2.14.83,3.36,3.36,0,0,0-.77,2.35v4.4H479.1v-8.63h1.11v1.69A2.87,2.87,0,0,1,481.44,408.9Z"/><path class="cls-4" d="M422.45,429.1a3.78,3.78,0,0,1,.93,2.76v5h-1.17V432a2.91,2.91,0,0,0-.65-2.06,2.35,2.35,0,0,0-1.83-.7,2.71,2.71,0,0,0-2.11.83,3.19,3.19,0,0,0-.78,2.29v4.53h-1.16V432a3,3,0,0,0-.65-2.06,2.38,2.38,0,0,0-1.85-.7,2.73,2.73,0,0,0-2.11.83,3.19,3.19,0,0,0-.78,2.29v4.53h-1.16v-8.64h1.11v1.58a3.2,3.2,0,0,1,1.28-1.22,4.11,4.11,0,0,1,1.89-.42,3.66,3.66,0,0,1,1.88.46,2.79,2.79,0,0,1,1.19,1.36,3.4,3.4,0,0,1,1.37-1.34,4.28,4.28,0,0,1,2-.48A3.45,3.45,0,0,1,422.45,429.1Z"/><path class="cls-4" d="M427.86,436.38a4.06,4.06,0,0,1-1.57-1.56,4.73,4.73,0,0,1,0-4.54,4.13,4.13,0,0,1,1.57-1.56,4.88,4.88,0,0,1,4.5,0,4.13,4.13,0,0,1,1.57,1.56,4.81,4.81,0,0,1,0,4.54,4.06,4.06,0,0,1-1.57,1.56,4.73,4.73,0,0,1-4.5,0Zm3.9-.88a2.91,2.91,0,0,0,1.14-1.19,4,4,0,0,0,0-3.52,2.91,2.91,0,0,0-1.14-1.19,3.21,3.21,0,0,0-1.65-.42,3.27,3.27,0,0,0-1.65.42,3,3,0,0,0-1.15,1.19,3.9,3.9,0,0,0,0,3.52,3,3,0,0,0,1.15,1.19,3.27,3.27,0,0,0,1.65.42A3.21,3.21,0,0,0,431.76,435.5Z"/><path class="cls-4" d="M439.22,428.61a4.09,4.09,0,0,1,2-.44v1.13l-.28,0a2.74,2.74,0,0,0-2.13.84,3.32,3.32,0,0,0-.78,2.35v4.4h-1.16v-8.64H438v1.69A2.89,2.89,0,0,1,439.22,428.61Z"/><path class="cls-4" d="M450.77,432.91h-7.23a3.12,3.12,0,0,0,1,2.18,3.43,3.43,0,0,0,2.36.83,3.76,3.76,0,0,0,1.48-.29,3.15,3.15,0,0,0,1.17-.85l.65.76a3.67,3.67,0,0,1-1.43,1,4.91,4.91,0,0,1-1.9.36,4.79,4.79,0,0,1-2.36-.57,4.14,4.14,0,0,1-1.6-1.56,4.53,4.53,0,0,1-.57-2.27,4.62,4.62,0,0,1,.55-2.27,4,4,0,0,1,1.51-1.56,4.23,4.23,0,0,1,2.16-.55,4.17,4.17,0,0,1,2.15.55,4,4,0,0,1,1.49,1.56,4.57,4.57,0,0,1,.55,2.27Zm-6.27-3a3.2,3.2,0,0,0-1,2.08h6.13a3.2,3.2,0,0,0-1-2.08,3.2,3.2,0,0,0-4.21,0Z"/><path class="cls-4" d="M457.45,426.1a.82.82,0,0,1-.24-.59.8.8,0,0,1,.24-.58.86.86,0,0,1,.61-.25.85.85,0,0,1,.61.24.78.78,0,0,1,.24.57.86.86,0,0,1-1.46.61Zm0,2.13h1.17v8.64h-1.17Z"/><path class="cls-4" d="M468.87,429.11a3.7,3.7,0,0,1,1,2.75v5h-1.16V432a2.92,2.92,0,0,0-.67-2.06,2.54,2.54,0,0,0-1.93-.7,2.9,2.9,0,0,0-2.2.83,3.09,3.09,0,0,0-.82,2.29v4.53h-1.16v-8.64H463v1.59a3.27,3.27,0,0,1,1.33-1.22,4.19,4.19,0,0,1,2-.43A3.51,3.51,0,0,1,468.87,429.11Z"/><path class="cls-4" d="M474.72,426a1.69,1.69,0,0,0-.39,1.21v1H477v1h-2.62v7.65H473.2v-7.65h-1.54v-1h1.54v-1.07a2.57,2.57,0,0,1,.68-1.87,2.6,2.6,0,0,1,1.93-.69,3.31,3.31,0,0,1,.95.14,2.21,2.21,0,0,1,.78.4l-.4.87a1.93,1.93,0,0,0-1.28-.42A1.48,1.48,0,0,0,474.72,426Z"/><path class="cls-4" d="M479.7,436.38a4.13,4.13,0,0,1-1.57-1.56,4.73,4.73,0,0,1,0-4.54,4.2,4.2,0,0,1,1.57-1.56,4.57,4.57,0,0,1,2.25-.55,4.52,4.52,0,0,1,2.25.55,4.13,4.13,0,0,1,1.57,1.56,4.81,4.81,0,0,1,0,4.54,4.06,4.06,0,0,1-1.57,1.56A4.43,4.43,0,0,1,482,437,4.48,4.48,0,0,1,479.7,436.38Zm3.9-.88a3,3,0,0,0,1.15-1.19,4,4,0,0,0,0-3.52,3,3,0,0,0-1.15-1.19,3.21,3.21,0,0,0-1.65-.42,3.27,3.27,0,0,0-1.65.42,3.06,3.06,0,0,0-1.15,1.19,3.9,3.9,0,0,0,0,3.52,3.06,3.06,0,0,0,1.15,1.19,3.27,3.27,0,0,0,1.65.42A3.21,3.21,0,0,0,483.6,435.5Z"/><path class="cls-7" d="M477.65,317.58c-1.64-3.53-5.68-5.61-9.39-6-7.81-.91-12.71,6.86-16.11,12.66a3.49,3.49,0,0,0-.2.44,21.28,21.28,0,0,1,7.91-.64c.32-.5.66-1,1-1.49l.42-.57.13-.16.4-.49c.41-.47.83-.92,1.28-1.35.24-.22.47-.43.72-.64l.28-.23h0l.07,0c.47-.28.94-.53,1.41-.78l.28-.1c.2-.06,1-.19.77-.18a10.09,10.09,0,0,1,1.1,0,6.36,6.36,0,0,0,.68.14l.51.15.4.15.28.13.52.28c.27.15.53.32.79.49l.33.3c.11.12.21.24.32.35s.25.43.36.64.08.25.11.37.13,1.12.11.38c0,.39,0,.77,0,1.17s0,.64-.06,1v0l-.06.4c-.06.31-.13.62-.2.92a35,35,0,0,1-1.58,4.8c-.06.14-.11.28-.16.43a1.48,1.48,0,0,0-.12.25c-.23.51-.45,1-.69,1.53-.47,1-1,2-1.48,3a50.16,50.16,0,0,1-3.53,5.67l-.5.67v0l0,0c-.38.44-.73.88-1.11,1.31a24.47,24.47,0,0,1-2.19,2.13c-.16.13-.44.47-.63.51s.6-.42.31-.23c-.12.07-.24.17-.36.25a13.15,13.15,0,0,1-1.3.78c-.17.08-.35.15-.52.24l-.19.07c-.22.07-.45.13-.67.18l-.08,0,.07,0-.08,0-.21,0c-.26.07-.26,0-.1-.06-.3,0-.66.05-.9.05s-.51-.12-.76-.2h0c-.15-.09-.58-.28-.64-.32-.23-.13-.46-.28-.68-.43l-.07-.05-.15-.13a3.31,3.31,0,0,0-4.58-.06c-1.11,1.18-1.43,3.39-.06,4.57a11.56,11.56,0,0,0,7.32,3.12,11.94,11.94,0,0,0,6.49-2c4.33-2.79,7.49-7.2,10-11.61a51.82,51.82,0,0,0,5.36-12.62A13.74,13.74,0,0,0,477.65,317.58Zm-6.7,1.74h0C471.39,319.61,471.11,319.43,471,319.32Zm-16.12,26.89c-.52-.16,0,0,.21.08Zm.22.08,0,0Zm17.07-22.75c0,.5,0,.14,0,0ZM472,320.7c.14.25.07.14,0,0Z"/><path class="cls-7" d="M457,346.46a.61.61,0,0,0-.32,0,1.47,1.47,0,0,1,.31,0Z"/><path class="cls-7" d="M452,356.85l-.42.57-.13.16c-.14.16-.27.33-.41.48a16.22,16.22,0,0,1-1.27,1.35c-.24.23-.48.44-.72.65l-.28.23h0l-.08,0c-.46.28-.93.52-1.4.78-.09,0-.19.07-.28.1s-1,.18-.77.18a10.09,10.09,0,0,1-1.1,0,6.36,6.36,0,0,0-.68-.14c-.17,0-.34-.1-.51-.15l-.4-.15-.28-.13-.52-.28c-.28-.15-.53-.32-.79-.49l-.33-.3c-.11-.12-.21-.24-.32-.35s-.25-.44-.36-.65l-.12-.37c-.05-.2-.12-1.12-.1-.37,0-.39-.05-.77,0-1.17s0-.64.06-1v-.05l.06-.4c.06-.31.12-.62.2-.92a35,35,0,0,1,1.58-4.8c.06-.14.11-.28.16-.43l.12-.25q.33-.78.69-1.53c.47-1,1-2,1.48-3a50.16,50.16,0,0,1,3.53-5.67c.16-.23.33-.45.5-.67v0l0,0c.37-.44.73-.88,1.11-1.31a24.47,24.47,0,0,1,2.19-2.13c.15-.13.44-.47.63-.51s-.61.42-.31.23l.36-.25a13.15,13.15,0,0,1,1.3-.78l.52-.24.19-.07c.22-.07.45-.13.67-.18l.08,0-.07,0,.08,0,.21,0c.26-.07.26,0,.09.06.31,0,.66-.05.91-.05s.51.12.76.2h0c.15.09.58.28.64.31l.68.44.07.05.15.13a3.31,3.31,0,0,0,4.58.06c1.11-1.19,1.43-3.39.06-4.57a11.51,11.51,0,0,0-7.32-3.12,11.92,11.92,0,0,0-6.49,2c-4.33,2.79-7.49,7.2-10,11.61a51.82,51.82,0,0,0-5.36,12.62,13.74,13.74,0,0,0,.4,9.19c1.64,3.53,5.68,5.61,9.39,6,7.81.91,12.71-6.87,16.1-12.66a2.31,2.31,0,0,0,.21-.45,21.27,21.27,0,0,1-7.91.65C452.69,355.86,452.35,356.36,452,356.85Zm6-23.7c.52.16,0,0-.21-.08Zm-.22-.08s0,0,0,0S457.79,333.05,457.82,333.07Zm-17.07,22.75c0-.5,0-.14,0,0Zm.13,2.84c-.14-.25-.07-.14,0,0Zm1,1.38c-.43-.29-.15-.12,0,0Z"/><path class="cls-7" d="M455.84,332.9a.57.57,0,0,0,.31,0,1.42,1.42,0,0,1-.3,0Z"/></g></g></svg>