<svg xmlns="http://www.w3.org/2000/svg" viewBox="0 0 696 459"><defs><style>.cls-1{fill:#afd3cd}.cls-2{fill:#5c7de4}.cls-3{fill:#222b3e}.cls-4{fill:#fff}.cls-5{fill:#ffae8a}.cls-9{fill:#476cc6}</style></defs><g id="Layer_2" data-name="Layer 2"><g id="Layer_1-2" data-name="Layer 1"><path class="cls-1" d="M0 .2h696V459H0z"/><path class="cls-2" transform="rotate(90 261 372)" d="M174 111h174v522H174z"/><path class="cls-3" d="M348 285l54 87-54 87H87V285h261z"/><path class="cls-2" d="M174 285l54 87-54 87H15V285h159z"/><path class="cls-1" d="M107.6 284h-42l21 25.2 21-25.2z"/><path class="cls-4" d="M455.6 25H67v228h388.6V25z"/><path class="cls-5" d="M522 0h174v459H522z"/><path class="cls-1" d="M521 28v42l25.2-21L521 28z"/><circle class="cls-4" cx="609" cy="137" r="55"/><circle class="cls-4" cx="609" cy="261" r="55"/><circle class="cls-5" cx="609" cy="385" r="55"/><rect class="cls-1" x="195" y="132" width="133" height="11" rx="4.5" ry="4.5"/><rect class="cls-1" x="175" y="153" width="174" height="11" rx="5.5" ry="5.5"/><rect class="cls-1" x="195" y="173" width="133" height="11" rx="4.5" ry="4.5"/><path class="cls-4" d="M238.5 395.2a4 4 0 0 1 2-.5v1.2h-.3a2.8 2.8 0 0 0-2.1.8 3.4 3.4 0 0 0-.8 2.4v4.4H236v-8.7h1.1v1.7a2.8 2.8 0 0 1 1.3-1.3zM250 399.5h-7.2a3.1 3.1 0 0 0 1 2.2 3.4 3.4 0 0 0 2.3.8 3.8 3.8 0 0 0 1.5-.3 3 3 0 0 0 1.2-.8l.6.7a3.7 3.7 0 0 1-1.4 1 5 5 0 0 1-1.9.4 4.8 4.8 0 0 1-2.4-.5 4 4 0 0 1-1.6-1.6 4.5 4.5 0 0 1-.5-2.3 4.6 4.6 0 0 1 .5-2.2 4 4 0 0 1 1.5-1.6 4.4 4.4 0 0 1 4.3 0 4 4 0 0 1 1.5 1.6 4.7 4.7 0 0 1 .6 2.2zm-6.3-3a3.2 3.2 0 0 0-1 2.1h6.2a3.2 3.2 0 0 0-1-2 3.2 3.2 0 0 0-4.3 0zM259 395.3a4 4 0 0 1 1.6 1.6 4.6 4.6 0 0 1 .6 2.2 4.7 4.7 0 0 1-.6 2.3 3.9 3.9 0 0 1-1.5 1.6 4.4 4.4 0 0 1-2.2.5 4 4 0 0 1-2-.4 3.5 3.5 0 0 1-1.3-1.3v4.8h-1.2v-11.8h1.1v1.7a3.7 3.7 0 0 1 1.4-1.3 4.2 4.2 0 0 1 2-.5 4.5 4.5 0 0 1 2.2.6zm-.6 6.8a3 3 0 0 0 1.2-1.2 3.6 3.6 0 0 0 .4-1.8 3.6 3.6 0 0 0-.4-1.7 3 3 0 0 0-1.2-1.2 3.4 3.4 0 0 0-3.3 0 3 3 0 0 0-1.1 1.2 3.7 3.7 0 0 0-.4 1.7 3.8 3.8 0 0 0 .4 1.8 3 3 0 0 0 1.1 1.2 3.5 3.5 0 0 0 3.3 0zM263.6 391.3h1.1v12.2h-1.1zM273.6 395.6a3.3 3.3 0 0 1 .9 2.5v5.4h-1.1V402a2.6 2.6 0 0 1-1.2 1 4 4 0 0 1-1.8.4 3.5 3.5 0 0 1-2.3-.6 2.4 2.4 0 0 1 0-3.6 4 4 0 0 1 2.5-.7h2.7v-.5a2.2 2.2 0 0 0-.6-1.7 2.6 2.6 0 0 0-1.8-.6 4.6 4.6 0 0 0-1.6.2 3.9 3.9 0 0 0-1.3.8l-.5-.9a4.7 4.7 0 0 1 1.6-.8 6.2 6.2 0 0 1 1.9-.4 3.7 3.7 0 0 1 2.6.9zm-1.3 6.6a2.7 2.7 0 0 0 1-1.3v-1.4h-2.7c-1.5 0-2.2.5-2.2 1.5a1.4 1.4 0 0 0 .6 1.2 2.6 2.6 0 0 0 1.6.4 3 3 0 0 0 1.7-.4zM279 403a4 4 0 0 1-1.6-1.6 4.8 4.8 0 0 1 0-4.5 4.1 4.1 0 0 1 1.6-1.6 4.7 4.7 0 0 1 2.3-.5 4.4 4.4 0 0 1 2 .4 3.3 3.3 0 0 1 1.4 1.3l-.9.6a2.8 2.8 0 0 0-1-1 3.3 3.3 0 0 0-1.5-.4 3.4 3.4 0 0 0-1.7.5 3 3 0 0 0-1.2 1.2 3.6 3.6 0 0 0-.4 1.7 3.5 3.5 0 0 0 .4 1.8 3 3 0 0 0 1.2 1.2 3.4 3.4 0 0 0 1.7.4 3.3 3.3 0 0 0 1.4-.3 2.6 2.6 0 0 0 1.1-1l.9.6a3.2 3.2 0 0 1-1.4 1.3 4.3 4.3 0 0 1-2 .4 4.7 4.7 0 0 1-2.3-.5zM294.3 399.5h-7.2a3.1 3.1 0 0 0 1 2.2 3.4 3.4 0 0 0 2.3.8 3.8 3.8 0 0 0 1.5-.3 3.1 3.1 0 0 0 1.2-.8l.6.7a3.6 3.6 0 0 1-1.4 1 4.8 4.8 0 0 1-1.9.4 4.8 4.8 0 0 1-2.3-.5 4 4 0 0 1-1.6-1.6 4.5 4.5 0 0 1-.6-2.3 4.7 4.7 0 0 1 .5-2.2 4 4 0 0 1 1.5-1.6 4.4 4.4 0 0 1 4.4 0 4 4 0 0 1 1.4 1.6 4.7 4.7 0 0 1 .6 2.2zm-6.3-3a3.2 3.2 0 0 0-1 2.1h6.1a3.2 3.2 0 0 0-1-2 3 3 0 0 0-2-.8 3 3 0 0 0-2.1.8zM310 395.7a3.7 3.7 0 0 1 1 2.8v5h-1.2v-5a3 3 0 0 0-.7-2 2.4 2.4 0 0 0-1.8-.7 2.8 2.8 0 0 0-2.1.8 3.3 3.3 0 0 0-.8 2.3v4.6h-1.2v-5a3 3 0 0 0-.6-2 2.4 2.4 0 0 0-1.9-.7 2.8 2.8 0 0 0-2 .8 3.2 3.2 0 0 0-.9 2.3v4.6h-1.1v-8.7h1.1v1.6a3.1 3.1 0 0 1 1.3-1.2 4.1 4.1 0 0 1 1.9-.5 3.8 3.8 0 0 1 1.9.5 2.9 2.9 0 0 1 1.2 1.4 3.3 3.3 0 0 1 1.3-1.4 4.3 4.3 0 0 1 2-.5 3.5 3.5 0 0 1 2.6 1zM321.7 399.5h-7.2a3.1 3.1 0 0 0 1 2.2 3.4 3.4 0 0 0 2.3.8 3.8 3.8 0 0 0 1.5-.3 3.1 3.1 0 0 0 1.2-.8l.6.7a3.7 3.7 0 0 1-1.4 1 5 5 0 0 1-2 .4 4.8 4.8 0 0 1-2.3-.5 4.1 4.1 0 0 1-1.6-1.6 4.5 4.5 0 0 1-.6-2.3 4.6 4.6 0 0 1 .6-2.2 4.1 4.1 0 0 1 1.5-1.6 4.2 4.2 0 0 1 2.2-.6 4.2 4.2 0 0 1 2.1.6 4 4 0 0 1 1.5 1.6 4.6 4.6 0 0 1 .6 2.2zm-6.3-3a3.1 3.1 0 0 0-1 2.1h6.2a3.2 3.2 0 0 0-1-2 3 3 0 0 0-2.2-.8 3 3 0 0 0-2 .8zM331 395.7a3.7 3.7 0 0 1 1 2.8v5H331v-5a3 3 0 0 0-.7-2 2.5 2.5 0 0 0-1.9-.7 3 3 0 0 0-2.2.8 3.1 3.1 0 0 0-.8 2.3v4.6H324v-8.7h1.1v1.6a3.3 3.3 0 0 1 1.4-1.2 4.2 4.2 0 0 1 2-.5 3.5 3.5 0 0 1 2.5 1zM339.7 403a2.1 2.1 0 0 1-.8.4 3.1 3.1 0 0 1-1 .1 2.5 2.5 0 0 1-1.8-.6 2.5 2.5 0 0 1-.7-1.9v-5.2h-1.5v-1h1.5V393h1.2v2h2.6v1h-2.6v5.1a1.7 1.7 0 0 0 .3 1.2 1.5 1.5 0 0 0 1.2.4 2.1 2.1 0 0 0 .7-.1 1.5 1.5 0 0 0 .5-.4zM347.9 392.6a1.7 1.7 0 0 0-.4 1.2v1h2.7v1h-2.7v7.6h-1.1v-7.6h-1.6v-1h1.6v-1a2.6 2.6 0 0 1 .6-2 2.6 2.6 0 0 1 2-.6 3.3 3.3 0 0 1 1 .1 2.2 2.2 0 0 1 .7.4l-.4.9a2 2 0 0 0-1.3-.4 1.5 1.5 0 0 0-1.1.4zM359.1 399.5h-7.2a3 3 0 0 0 1 2.2 3.5 3.5 0 0 0 2.4.8 3.7 3.7 0 0 0 1.4-.3 3.1 3.1 0 0 0 1.2-.8l.7.7a3.8 3.8 0 0 1-1.5 1 4.9 4.9 0 0 1-1.9.4 4.8 4.8 0 0 1-2.3-.5 4 4 0 0 1-1.6-1.6 4.4 4.4 0 0 1-.6-2.3 4.6 4.6 0 0 1 .5-2.2 4.1 4.1 0 0 1 1.5-1.6 4.2 4.2 0 0 1 2.2-.6 4.2 4.2 0 0 1 2.2.6 4 4 0 0 1 1.5 1.6 4.7 4.7 0 0 1 .5 2.2zm-6.3-3a3 3 0 0 0-1 2.1h6.2a3 3 0 0 0-1-2 3 3 0 0 0-2.1-.8 3 3 0 0 0-2 .8zM369 399.5h-7.2a3 3 0 0 0 1 2.2 3.5 3.5 0 0 0 2.4.8 3.7 3.7 0 0 0 1.4-.3 3.1 3.1 0 0 0 1.2-.8l.7.7a3.8 3.8 0 0 1-1.5 1 5 5 0 0 1-1.9.4 4.8 4.8 0 0 1-2.3-.5 4 4 0 0 1-1.6-1.6 4.4 4.4 0 0 1-.6-2.3 4.6 4.6 0 0 1 .6-2.2 4.1 4.1 0 0 1 1.5-1.6 4.2 4.2 0 0 1 2.1-.6 4.2 4.2 0 0 1 2.2.6 4 4 0 0 1 1.5 1.6 4.7 4.7 0 0 1 .5 2.2zm-6.3-3a3 3 0 0 0-1 2.1h6.2a3.2 3.2 0 0 0-1-2 3 3 0 0 0-2.1-.8 3 3 0 0 0-2 .8z"/><path class="cls-2" d="M67 95.3h51.5L104.6 121v113.8l6 4v4h-7l8 3.9v7H67V95.2z"/><path class="cls-2" d="M111.5 97.3S138 74.5 260 74.5V25H67v85.8h34.6z"/><path class="cls-2" d="M223.2 25c7.2 16.4 14 32.9 20 49.8q10.3-.3 21.8-.3V25zM456 95.3h-51.5l13.9 25.7v113.8l-6 4v4h7l-8 3.9v7H456V95.2z"/><path class="cls-2" d="M411.5 97.3S385 74.5 263 74.5V25h193v85.8h-34.6z"/><path class="cls-4" d="M135.3 46.5a10.7 10.7 0 0 0-3.5-.7q-1.3 0-1.3.9a1.2 1.2 0 0 0 .9 1.1 16.7 16.7 0 0 0 2.6.9 31.6 31.6 0 0 1 3.7 1.2 6.8 6.8 0 0 1 2.6 2 5.5 5.5 0 0 1 1.1 3.6 6 6 0 0 1-1.1 3.9 7 7 0 0 1-3.2 2.3 12.7 12.7 0 0 1-4.5.7 18.2 18.2 0 0 1-5.6-1 15.9 15.9 0 0 1-5-2.4l2.6-5.3a14.2 14.2 0 0 0 4 2.4 11.1 11.1 0 0 0 4 1 2.2 2.2 0 0 0 1.3-.3 1 1 0 0 0 .4-.9 1.3 1.3 0 0 0-.8-1.1 16.4 16.4 0 0 0-2.7-.9 28 28 0 0 1-3.7-1.2 6.5 6.5 0 0 1-2.6-1.9 5.2 5.2 0 0 1-1-3.4 6.3 6.3 0 0 1 1-3.7 7 7 0 0 1 3.2-2.4 12.4 12.4 0 0 1 4.7-.8 18 18 0 0 1 5 .7 16 16 0 0 1 4.2 1.8l-2.5 5.3a23 23 0 0 0-3.8-1.8zM159.7 42a10.4 10.4 0 0 1 4.1 3.8 10.7 10.7 0 0 1 1.5 5.6 11 11 0 0 1-1.5 5.7 10.4 10.4 0 0 1-4 4 13 13 0 0 1-12 0 10.3 10.3 0 0 1-4-4 11 11 0 0 1-1.6-5.7 10.8 10.8 0 0 1 1.5-5.6 10.2 10.2 0 0 1 4.1-3.9 13.3 13.3 0 0 1 12 0zm-8 5a4.8 4.8 0 0 0-1.7 1.8 5.6 5.6 0 0 0-.6 2.7 5.7 5.7 0 0 0 .6 2.6 4.9 4.9 0 0 0 1.6 1.9 4 4 0 0 0 2.3.7 3.8 3.8 0 0 0 2.1-.7 4.5 4.5 0 0 0 1.6-1.9 6.1 6.1 0 0 0 .6-2.6 6 6 0 0 0-.6-2.7 4.5 4.5 0 0 0-1.5-1.8 3.9 3.9 0 0 0-2.2-.7 4 4 0 0 0-2.3.7zM180.3 47.1a4.9 4.9 0 0 0-2.6-.8 4 4 0 0 0-2.2.7 4.3 4.3 0 0 0-1.5 1.7 5.8 5.8 0 0 0-.6 2.6 6 6 0 0 0 .6 2.6 4.4 4.4 0 0 0 1.6 1.8 4 4 0 0 0 2.2.7 5.3 5.3 0 0 0 2.4-.7 8.3 8.3 0 0 0 2.4-1.8l4 4.3a13.2 13.2 0 0 1-4.3 3.1 11.7 11.7 0 0 1-4.9 1.2 11.4 11.4 0 0 1-5.7-1.5 10.2 10.2 0 0 1-4-4 11.3 11.3 0 0 1-1.4-5.6 10.7 10.7 0 0 1 1.4-5.6 10.4 10.4 0 0 1 4.1-4 12.2 12.2 0 0 1 10.7-.3 11.9 11.9 0 0 1 4 2.9l-4 4.7a7.5 7.5 0 0 0-2.2-2zM188 41h7v21h-7zM213.3 62l-1-3h-7.9l-1 3h-7.2l8.8-21h7.1l8.6 21zm-7.1-8h4.4l-2.2-6.1zM222 41h7v15.2h8.8V62H222zM257.5 46.5a10.7 10.7 0 0 0-3.4-.7q-1.3 0-1.3.9a1.2 1.2 0 0 0 .8 1.1 16.3 16.3 0 0 0 2.6.9 32.3 32.3 0 0 1 3.8 1.2 6.8 6.8 0 0 1 2.6 2 5.5 5.5 0 0 1 1.1 3.6 6 6 0 0 1-1.2 3.9 7 7 0 0 1-3.2 2.3 12.7 12.7 0 0 1-4.5.7 18.2 18.2 0 0 1-5.6-1 15.8 15.8 0 0 1-4.9-2.4l2.6-5.3a14.2 14.2 0 0 0 4 2.4 11.1 11.1 0 0 0 4 1 2.2 2.2 0 0 0 1.2-.3 1 1 0 0 0 .5-.9 1.3 1.3 0 0 0-.9-1.1 16.4 16.4 0 0 0-2.7-.9 28.2 28.2 0 0 1-3.7-1.2 6.5 6.5 0 0 1-2.6-1.9 5.2 5.2 0 0 1-1-3.4 6.3 6.3 0 0 1 1-3.7 7 7 0 0 1 3.2-2.4 12.4 12.4 0 0 1 4.7-.9 18 18 0 0 1 5 .7 16 16 0 0 1 4.2 1.9l-2.5 5.3a23 23 0 0 0-3.8-1.8zM265.5 41h17.8v5.3h-10.9v2.6h9.9V54h-9.9v2.6h11.2V62h-18.1zM299.2 47.1a4.9 4.9 0 0 0-2.5-.8 4 4 0 0 0-2.3.7 4.3 4.3 0 0 0-1.5 1.7 5.8 5.8 0 0 0-.6 2.6 6 6 0 0 0 .6 2.6 4.4 4.4 0 0 0 1.5 1.8 4 4 0 0 0 2.3.7 5.2 5.2 0 0 0 2.4-.7 8.3 8.3 0 0 0 2.3-1.8l4 4.3a13.2 13.2 0 0 1-4.2 3.1 11.7 11.7 0 0 1-5 1.2 11.5 11.5 0 0 1-5.6-1.5 10.1 10.1 0 0 1-4-4 11.3 11.3 0 0 1-1.5-5.6 10.7 10.7 0 0 1 1.5-5.6 10.4 10.4 0 0 1 4-4 12.3 12.3 0 0 1 10.8-.3 11.9 11.9 0 0 1 4 2.9l-4 4.7a7.5 7.5 0 0 0-2.2-2zM314.4 55.7a2.9 2.9 0 0 0 2.2 1 2.6 2.6 0 0 0 2-1 3.7 3.7 0 0 0 .8-2.4V41h7v12.3a9.5 9.5 0 0 1-1.2 4.8 8.3 8.3 0 0 1-3.4 3.3 11.2 11.2 0 0 1-5.2 1.1 11.5 11.5 0 0 1-5.3-1.1 8.4 8.4 0 0 1-3.5-3.3 9.3 9.3 0 0 1-1.2-4.8V41h7v12.3a3.5 3.5 0 0 0 .8 2.4zM341.2 62l-2.5-5.5h-2.6V62h-7V41h10.2a10 10 0 0 1 6.6 2 6.9 6.9 0 0 1 2.4 5.6 8.7 8.7 0 0 1-1 4 6.5 6.5 0 0 1-2.3 2.6l4.1 6.8zm-5-10.7h3.1a2.2 2.2 0 0 0 1.8-.7 2.7 2.7 0 0 0 .6-1.9 2.6 2.6 0 0 0-.6-1.8 2.3 2.3 0 0 0-1.8-.6h-3.2zM351 41h7v21h-7zM359.6 41h18.9v5.5h-6V62h-7V46.5h-6z"/><path class="cls-4" d="M400.6 41L393 55.5V62h-7v-6.4L378.4 41h7l4.1 8.1 4.1-8.1z"/><path class="cls-1" d="M151 231.5h224.5a1.5 1.5 0 0 0 0-3H151a1.5 1.5 0 0 0 0 3z"/><rect class="cls-4" x="41.5" y="173.5" width="102" height="5" rx="2.5" ry="2.5" transform="rotate(90 92.5 176)"/><rect class="cls-4" x="29.5" y="173.5" width="102" height="5" rx="2.5" ry="2.5" transform="rotate(90 80.5 176)"/><rect class="cls-4" x="379.5" y="173.5" width="102" height="5" rx="2.5" ry="2.5" transform="rotate(90 430.5 176)"/><rect class="cls-4" x="391.5" y="173.5" width="102" height="5" rx="2.5" ry="2.5" transform="rotate(90 442.5 176)"/><path class="cls-4" d="M14.5 321.1h8a11.5 11.5 0 0 1 5.2 1.2 8.4 8.4 0 0 1 3.5 3.2 9.8 9.8 0 0 1 0 9.6 8.4 8.4 0 0 1-3.5 3.2 11.5 11.5 0 0 1-5.2 1.1h-8zm7.8 15.5a7.8 7.8 0 0 0 3.6-.8 5.6 5.6 0 0 0 2.3-2.2 7 7 0 0 0 0-6.6 5.5 5.5 0 0 0-2.3-2.2 7.7 7.7 0 0 0-3.6-.8H18v12.6zM39.6 338.5A9 9 0 0 1 36 335a9.7 9.7 0 0 1 0-9.6 9 9 0 0 1 3.6-3.4 11.1 11.1 0 0 1 10 0 9 9 0 0 1 3.6 3.4 9.8 9.8 0 0 1 0 9.6 9 9 0 0 1-3.5 3.4 11.1 11.1 0 0 1-10.1 0zm8.3-2.6a6 6 0 0 0 2.3-2.3 7 7 0 0 0 0-6.6 6 6 0 0 0-2.3-2.3 7 7 0 0 0-6.6 0A6 6 0 0 0 39 327a7 7 0 0 0 0 6.6 6 6 0 0 0 2.3 2.3 7 7 0 0 0 6.6 0zM61.5 338.5A9 9 0 0 1 58 335a9.9 9.9 0 0 1 0-9.7 9.1 9.1 0 0 1 3.6-3.3 10.3 10.3 0 0 1 5-1.2 10.5 10.5 0 0 1 4 .8 8.4 8.4 0 0 1 3.2 2.2l-2.2 2.1a6.4 6.4 0 0 0-4.9-2.1 6.8 6.8 0 0 0-3.4.8A6 6 0 0 0 61 327a7 7 0 0 0 0 6.6 6 6 0 0 0 2.3 2.3 6.8 6.8 0 0 0 3.4.8 6.4 6.4 0 0 0 4.9-2.1l2.2 2a8.3 8.3 0 0 1-3.2 2.3 10.5 10.5 0 0 1-4 .8 10.3 10.3 0 0 1-5-1.2zM78.9 337.6a8.3 8.3 0 0 1-2.1-6.1V321h3.4v10.2q0 5.4 4.6 5.4t4.7-5.4v-10.2h3.3v10.4a8.3 8.3 0 0 1-2.1 6 7.9 7.9 0 0 1-5.9 2.2 8 8 0 0 1-5.9-2.1zM114.3 339.4v-12l-6 10h-1.5l-6-10v12h-3.3v-18.3h2.8l7.3 12.2 7.1-12.2h2.8v18.3zM136.2 336.6v2.8h-13.7v-18.3h13.3v2.9H126v4.8h8.8v2.7H126v5zM156.3 321.1v18.3h-2.8L143.4 327v12.4H140V321h2.8l10 12.4v-12.4zM164.9 324h-6v-2.9h15.4v2.9h-6v15.4h-3.4zM178.3 339a8.4 8.4 0 0 1-3.1-1.5l1.2-2.6a9.5 9.5 0 0 0 2.7 1.4 10.1 10.1 0 0 0 3.3.6 5.7 5.7 0 0 0 3-.7 2 2 0 0 0 1-1.7 1.7 1.7 0 0 0-.6-1.3 4 4 0 0 0-1.4-.8l-2.4-.7a25.6 25.6 0 0 1-3.3-1 5.4 5.4 0 0 1-2.3-1.5 4.2 4.2 0 0 1-.9-2.9 4.9 4.9 0 0 1 .8-2.7 5.7 5.7 0 0 1 2.5-2 10 10 0 0 1 4-.8 13 13 0 0 1 3.4.5 9.1 9.1 0 0 1 2.8 1.2l-1 2.6a10.4 10.4 0 0 0-2.5-1 9.1 9.1 0 0 0-2.5-.4 5.3 5.3 0 0 0-3 .7 2 2 0 0 0-1 1.8 1.6 1.6 0 0 0 .5 1.3 4 4 0 0 0 1.4.7l2.4.7a24.4 24.4 0 0 1 3.3 1 5.8 5.8 0 0 1 2.3 1.6 4.1 4.1 0 0 1 .9 2.8 4.8 4.8 0 0 1-.8 2.7 5.6 5.6 0 0 1-2.5 2 10 10 0 0 1-4 .7 14 14 0 0 1-4.2-.6zM26.5 364l-3.8-5.4a6 6 0 0 1-.7 0H18v5.4h-3.4v-18.3H22a10.2 10.2 0 0 1 4.1.8 6 6 0 0 1 2.7 2.2 6.9 6.9 0 0 1 0 7 6 6 0 0 1-2.9 2.3l4.2 6zm-1.3-14.5a5.3 5.3 0 0 0-3.3-1h-4v7.4h4a5.2 5.2 0 0 0 3.3-1 3.3 3.3 0 0 0 1.2-2.8 3.3 3.3 0 0 0-1.2-2.6zM47.3 361.1v2.9H33.6v-18.3h13.3v2.8H37v4.8h8.8v2.8H37v5zM70.3 365.8a6.2 6.2 0 0 1-2.1 1.6 6.5 6.5 0 0 1-2.7.6 7.2 7.2 0 0 1-3.4-.9 15.8 15.8 0 0 1-3.6-3 9.9 9.9 0 0 1-4.5-1.4 9 9 0 0 1-3.1-3.3 9.4 9.4 0 0 1-1.2-4.6A9.3 9.3 0 0 1 51 350a9 9 0 0 1 3.5-3.4 11.1 11.1 0 0 1 10.1 0 9 9 0 0 1 3.5 3.4 9.3 9.3 0 0 1 1.3 4.8 9.4 9.4 0 0 1-.9 4 9.2 9.2 0 0 1-2.4 3.2 9.7 9.7 0 0 1-3.5 1.8A5.3 5.3 0 0 0 64 365a3.4 3.4 0 0 0 1.6.4 4.1 4.1 0 0 0 3.2-1.5zM54 358.1a6 6 0 0 0 2.3 2.3 7 7 0 0 0 6.6 0 6 6 0 0 0 2.3-2.3 7 7 0 0 0 0-6.6 5.8 5.8 0 0 0-2.3-2.3 7 7 0 0 0-6.6 0 6 6 0 0 0-2.3 2.3 7 7 0 0 0 0 6.6zM75 362.1a8.3 8.3 0 0 1-2.1-6v-10.4h3.4v10.2q0 5.4 4.6 5.4t4.7-5.4v-10.2h3.3V356a8.3 8.3 0 0 1-2.1 6.1 7.9 7.9 0 0 1-5.9 2.1 8 8 0 0 1-5.9-2zM93.6 345.7H97V364h-3.4zM114 364l-3.8-5.4a6.2 6.2 0 0 1-.7 0h-4.1v5.4H102v-18.3h7.5a10.1 10.1 0 0 1 4.2.8 6 6 0 0 1 2.7 2.2 6.3 6.3 0 0 1 1 3.5 6.2 6.2 0 0 1-1 3.6 6 6 0 0 1-3 2.2l4.2 6zm-1.3-14.5a5.3 5.3 0 0 0-3.4-1h-4v7.4h4a5.2 5.2 0 0 0 3.4-1 3.3 3.3 0 0 0 1.1-2.8 3.3 3.3 0 0 0-1.1-2.6zM134.8 361.1v2.9H121v-18.3h13.3v2.8h-10v4.8h8.9v2.8h-8.9v5zM138.6 345.7h8a11.5 11.5 0 0 1 5.2 1.1 8.3 8.3 0 0 1 3.5 3.2 9.8 9.8 0 0 1 0 9.6 8.4 8.4 0 0 1-3.5 3.2 11.4 11.4 0 0 1-5.2 1.2h-8zm7.8 15.4a7.7 7.7 0 0 0 3.5-.8 5.5 5.5 0 0 0 2.4-2.2 7 7 0 0 0 0-6.6 5.6 5.6 0 0 0-2.4-2.2 7.8 7.8 0 0 0-3.5-.7H142V361zM18.5 386v11.5h-1.1V387h-2.7v-1zM21.6 397.3a.9.9 0 0 1-.3-.7.9.9 0 0 1 .3-.6.9.9 0 0 1 1.2 0 .8.8 0 0 1 .2.6.9.9 0 0 1-1.4.7zM39 392.5a2.8 2.8 0 0 1 .7 1.9 2.6 2.6 0 0 1-1.1 2.3 5.5 5.5 0 0 1-3.2.8H30V386h5a5 5 0 0 1 3 .8 2.5 2.5 0 0 1 1 2.2 2.7 2.7 0 0 1-.4 1.6 2.8 2.8 0 0 1-1.3 1 3 3 0 0 1 1.7 1zm-7.7-5.5v4.2H35a3.6 3.6 0 0 0 2.1-.6 2 2 0 0 0 0-3 3.6 3.6 0 0 0-2.1-.6zm6.4 9a1.8 1.8 0 0 0 .8-1.6c0-1.5-1-2.2-3.2-2.2h-4v4.3h4a4.3 4.3 0 0 0 2.4-.6zM42.2 386.7a.8.8 0 0 1-.2-.6.8.8 0 0 1 .2-.6.9.9 0 0 1 .6-.2.8.8 0 0 1 .6.2.8.8 0 0 1 .3.6.9.9 0 0 1-1.5.6zm0 2.1h1.2v8.7h-1.2zM49 389.2a4 4 0 0 1 2-.5v1.2h-.3a2.8 2.8 0 0 0-2.1.8 3.4 3.4 0 0 0-.8 2.4v4.4h-1.2v-8.7h1.1v1.7a2.8 2.8 0 0 1 1.3-1.3zM58 397a2.1 2.1 0 0 1-.8.4 3.1 3.1 0 0 1-1 .1 2.5 2.5 0 0 1-1.9-.6 2.5 2.5 0 0 1-.6-1.9v-5.2H52v-1h1.6V387h1.1v2h2.7v1h-2.7v5.1a1.6 1.6 0 0 0 .4 1.2 1.5 1.5 0 0 0 1.1.4 2 2 0 0 0 .7-.1 1.4 1.4 0 0 0 .6-.4zM67.1 389.7a3.7 3.7 0 0 1 1 2.8v5H67v-5a2.9 2.9 0 0 0-.7-2 2.5 2.5 0 0 0-1.9-.7 3 3 0 0 0-2.2.8 3.2 3.2 0 0 0-.8 2.3v4.6h-1.2v-12.2h1.2v5a3.1 3.1 0 0 1 1.3-1.1 4.2 4.2 0 0 1 2-.5 3.5 3.5 0 0 1 2.5 1zM79.2 385.3v12.2H78v-1.8a3.5 3.5 0 0 1-1.3 1.4 4 4 0 0 1-2 .4 4.4 4.4 0 0 1-2.2-.5 4 4 0 0 1-1.5-1.6 5 5 0 0 1 0-4.5 4 4 0 0 1 1.6-1.6 4.5 4.5 0 0 1 2.2-.6 4 4 0 0 1 1.8.5 3.5 3.5 0 0 1 1.4 1.3v-5.2zM76.4 396a3 3 0 0 0 1.2-1.2 3.9 3.9 0 0 0 0-3.5 3 3 0 0 0-1.1-1.2 3.2 3.2 0 0 0-1.7-.4 3.3 3.3 0 0 0-1.6.4 3 3 0 0 0-1.2 1.2 4 4 0 0 0 0 3.5 3 3 0 0 0 1.1 1.2 3.3 3.3 0 0 0 1.7.4 3.2 3.2 0 0 0 1.7-.4zM88 389.6a3.3 3.3 0 0 1 1 2.5v5.4h-1.2V396a2.6 2.6 0 0 1-1.1 1 4 4 0 0 1-1.9.4 3.5 3.5 0 0 1-2.3-.6 2.4 2.4 0 0 1 0-3.6 4 4 0 0 1 2.5-.7h2.8v-.5a2.2 2.2 0 0 0-.7-1.7 2.6 2.6 0 0 0-1.8-.6 4.6 4.6 0 0 0-1.6.2 3.9 3.9 0 0 0-1.3.8l-.5-.9a4.7 4.7 0 0 1 1.6-.8 6.2 6.2 0 0 1 2-.4 3.7 3.7 0 0 1 2.5.9zm-1.3 6.6a2.7 2.7 0 0 0 1-1.3v-1.4H85c-1.5 0-2.3.5-2.3 1.5a1.4 1.4 0 0 0 .6 1.2 2.6 2.6 0 0 0 1.6.4 3 3 0 0 0 1.7-.4zM96.7 397a2.1 2.1 0 0 1-.9.4 3.1 3.1 0 0 1-1 .1 2.5 2.5 0 0 1-1.8-.6 2.5 2.5 0 0 1-.7-1.9v-5.2h-1.5v-1h1.5v-2h1.2v2H96v1h-2.6v5.2a1.7 1.7 0 0 0 .3 1.2 1.5 1.5 0 0 0 1.2.4 2 2 0 0 0 .7-.1 1.5 1.5 0 0 0 .5-.4zM106 393.5h-7.2a3 3 0 0 0 1 2.2 3.5 3.5 0 0 0 2.3.8 3.7 3.7 0 0 0 1.5-.3 3.1 3.1 0 0 0 1.2-.8l.6.7a3.8 3.8 0 0 1-1.4 1 5 5 0 0 1-2 .4 4.8 4.8 0 0 1-2.3-.5 4 4 0 0 1-1.6-1.6 4.4 4.4 0 0 1-.5-2.3 4.6 4.6 0 0 1 .5-2.2 4.1 4.1 0 0 1 1.5-1.6 4.2 4.2 0 0 1 2.2-.6 4.2 4.2 0 0 1 2.1.6 4 4 0 0 1 1.5 1.6 4.7 4.7 0 0 1 .6 2.2zm-6.3-3a3 3 0 0 0-1 2.1h6.2a3.2 3.2 0 0 0-1-2 3 3 0 0 0-2.2-.8 3 3 0 0 0-2 .8zM23.2 416.1v1h-8v-.8l4.7-4.6a6.3 6.3 0 0 0 1.2-1.6 2.8 2.8 0 0 0 .4-1.3 2 2 0 0 0-.7-1.6 3 3 0 0 0-2-.5 4 4 0 0 0-3.2 1.2l-.8-.7a4.4 4.4 0 0 1 1.7-1.2 6 6 0 0 1 2.4-.4 4.3 4.3 0 0 1 2.8.8 2.7 2.7 0 0 1 1 2.3 3.8 3.8 0 0 1-.4 1.7 7 7 0 0 1-1.5 1.9l-4 3.8zM25.1 417a.9.9 0 0 1-.2-.6.9.9 0 0 1 .2-.7.8.8 0 0 1 .6-.2.9.9 0 0 1 .7.2.9.9 0 0 1 .2.7.9.9 0 0 1-.2.6.9.9 0 0 1-.7.3.8.8 0 0 1-.6-.3zM33.6 405.7H35v11.5h-1.3zM51.7 409.4a3.7 3.7 0 0 1 1 2.8v5h-1.3v-5a3 3 0 0 0-.6-2 2.4 2.4 0 0 0-1.8-.6 2.8 2.8 0 0 0-2.1.8 3.2 3.2 0 0 0-.8 2.3v4.5h-1.2v-4.9a2.9 2.9 0 0 0-.6-2 2.4 2.4 0 0 0-1.9-.7 2.8 2.8 0 0 0-2.1.8 3.3 3.3 0 0 0-.8 2.3v4.6h-1.1v-8.7h1v1.6a3 3 0 0 1 1.4-1.2 4 4 0 0 1 1.9-.4 3.7 3.7 0 0 1 1.8.4 2.9 2.9 0 0 1 1.2 1.4 3.3 3.3 0 0 1 1.4-1.4 4.2 4.2 0 0 1 2-.4 3.4 3.4 0 0 1 2.6.8zM69.1 409.4a3.7 3.7 0 0 1 1 2.8v5h-1.2v-5a3 3 0 0 0-.7-2 2.4 2.4 0 0 0-1.8-.6 2.8 2.8 0 0 0-2.1.8 3.3 3.3 0 0 0-.8 2.3v4.5h-1.2v-4.9a3 3 0 0 0-.6-2 2.4 2.4 0 0 0-1.9-.7 2.8 2.8 0 0 0-2 .8 3.2 3.2 0 0 0-.9 2.3v4.6h-1.1v-8.7h1.1v1.6a3.1 3.1 0 0 1 1.3-1.2 4 4 0 0 1 1.9-.4 3.7 3.7 0 0 1 1.8.4 2.8 2.8 0 0 1 1.2 1.4 3.4 3.4 0 0 1 1.4-1.4 4.3 4.3 0 0 1 2-.4 3.4 3.4 0 0 1 2.6.8zM73.2 406.4a.8.8 0 0 1-.3-.6.8.8 0 0 1 .3-.6.9.9 0 0 1 1.2 0 .7.7 0 0 1 .2.6.8.8 0 0 1-.2.6.9.9 0 0 1-1.2 0zm0 2.1h1.1v8.7h-1zM85.6 408.5v7.6a3.8 3.8 0 0 1-4.3 4.3 7.3 7.3 0 0 1-2.3-.3 4.7 4.7 0 0 1-1.7-1l.6-1a4.1 4.1 0 0 0 1.5 1 5.6 5.6 0 0 0 1.9.3 3.3 3.3 0 0 0 2.4-.8 3.2 3.2 0 0 0 .8-2.4v-1a3.5 3.5 0 0 1-1.5 1.2 4.4 4.4 0 0 1-2 .4 4.5 4.5 0 0 1-2.1-.5 4 4 0 0 1-1.6-1.5 4.4 4.4 0 0 1 0-4.3 4 4 0 0 1 1.6-1.5 4.5 4.5 0 0 1 2.2-.5 4.4 4.4 0 0 1 2 .4 3.6 3.6 0 0 1 1.4 1.3v-1.7zm-2.7 6.9a3 3 0 0 0 1.2-1.1 3.2 3.2 0 0 0 .4-1.7 3.1 3.1 0 0 0-.4-1.6 3 3 0 0 0-1.2-1.1 3.5 3.5 0 0 0-1.7-.4 3.6 3.6 0 0 0-1.7.4 2.9 2.9 0 0 0-1.2 1.1 3.4 3.4 0 0 0 0 3.3 3 3 0 0 0 1.2 1.1 3.8 3.8 0 0 0 3.4 0zM91.2 408.9a4.2 4.2 0 0 1 2-.4v1H93a2.8 2.8 0 0 0-2.1 1 3.3 3.3 0 0 0-.8 2.3v4.4h-1.2v-8.7H90v1.7a3 3 0 0 1 1.2-1.3zM101 409.3a3.3 3.3 0 0 1 .8 2.5v5.4h-1v-1.4a2.7 2.7 0 0 1-1.2 1 4 4 0 0 1-1.8.5 3.5 3.5 0 0 1-2.3-.7 2.2 2.2 0 0 1-.9-1.9 2.2 2.2 0 0 1 .8-1.7 3.9 3.9 0 0 1 2.5-.7h2.8v-.5a2.2 2.2 0 0 0-.6-1.7 2.5 2.5 0 0 0-1.9-.6 4.7 4.7 0 0 0-1.5.3 4 4 0 0 0-1.3.7l-.6-.9a4.6 4.6 0 0 1 1.6-.8 6.2 6.2 0 0 1 2-.3 3.6 3.6 0 0 1 2.5.8zm-1.4 6.6a2.7 2.7 0 0 0 1-1.3v-1.4H98c-1.5 0-2.2.5-2.2 1.5a1.4 1.4 0 0 0 .6 1.2 2.6 2.6 0 0 0 1.6.4 3.1 3.1 0 0 0 1.6-.4zM109.6 416.6a2.3 2.3 0 0 1-.8.5 3.4 3.4 0 0 1-1 .1 2.3 2.3 0 0 1-2.6-2.5v-5.2h-1.5v-1h1.5v-1.9h1.2v2h2.6v1h-2.6v5a1.6 1.6 0 0 0 .4 1.2 1.5 1.5 0 0 0 1 .4 2 2 0 0 0 .8 0 1.8 1.8 0 0 0 .5-.4zM111.7 406.4a.8.8 0 0 1-.3-.6.8.8 0 0 1 .3-.6.9.9 0 0 1 1.2 0 .8.8 0 0 1 .2.6.8.8 0 0 1-.2.6.9.9 0 0 1-1.2 0zm0 2.1h1.1v8.7h-1.1zM117.4 416.7a4.1 4.1 0 0 1-1.6-1.6 4.8 4.8 0 0 1 0-4.5 4 4 0 0 1 1.6-1.6 4.5 4.5 0 0 1 2.2-.5 4.6 4.6 0 0 1 2.3.5 4 4 0 0 1 1.5 1.6 4.9 4.9 0 0 1 0 4.5 4.2 4.2 0 0 1-1.5 1.6 4.5 4.5 0 0 1-2.3.6 4.4 4.4 0 0 1-2.2-.6zm3.9-1a3 3 0 0 0 1.1-1.1 4 4 0 0 0 0-3.5 3 3 0 0 0-1.1-1.2 3.3 3.3 0 0 0-1.7-.4 3.2 3.2 0 0 0-1.6.4 3 3 0 0 0-1.2 1.2 3.9 3.9 0 0 0 0 3.5 3 3 0 0 0 1.2 1.2 3.2 3.2 0 0 0 1.6.4 3.3 3.3 0 0 0 1.7-.4zM133.4 409.4a3.7 3.7 0 0 1 1 2.8v5h-1.2v-5a2.9 2.9 0 0 0-.7-2 2.5 2.5 0 0 0-1.9-.6 3 3 0 0 0-2.2.8 3.1 3.1 0 0 0-.8 2.3v4.5h-1.2v-8.6h1.2v1.6a3.3 3.3 0 0 1 1.3-1.3 4.4 4.4 0 0 1 2-.4 3.5 3.5 0 0 1 2.5.9zM17 436.6a4.6 4.6 0 0 1-1.7-1.1l.4-1a4.6 4.6 0 0 0 1.7 1 6.2 6.2 0 0 0 2.1.4 4 4 0 0 0 2.4-.5 1.8 1.8 0 0 0 .7-1.5 1.5 1.5 0 0 0-.4-1.1 2.8 2.8 0 0 0-1-.7l-1.7-.4a19.3 19.3 0 0 1-2-.7 3.4 3.4 0 0 1-1.4-.9 2.5 2.5 0 0 1-.5-1.7 2.9 2.9 0 0 1 .4-1.6 3.3 3.3 0 0 1 1.4-1.1 6 6 0 0 1 2.4-.4 7 7 0 0 1 2 .2 5.7 5.7 0 0 1 1.6.8l-.4 1a6 6 0 0 0-1.6-.7 5.8 5.8 0 0 0-1.6-.3 3.7 3.7 0 0 0-2.3.6 1.8 1.8 0 0 0-.7 1.5 1.5 1.5 0 0 0 .4 1.1 2.6 2.6 0 0 0 1 .7l1.7.4a16.1 16.1 0 0 1 2 .7 3.4 3.4 0 0 1 1.3.9 2.5 2.5 0 0 1 .6 1.7 2.9 2.9 0 0 1-.5 1.5 3.2 3.2 0 0 1-1.4 1.2 6 6 0 0 1-2.4.4 7.5 7.5 0 0 1-2.4-.4zM30.8 436.3a2.1 2.1 0 0 1-.8.5 3.1 3.1 0 0 1-1 .1 2.5 2.5 0 0 1-2-.6 2.5 2.5 0 0 1-.6-1.9v-5.2H25v-1h1.5v-1.9h1.2v2h2.6v1h-2.6v5a1.7 1.7 0 0 0 .4 1.2 1.5 1.5 0 0 0 1 .4 2.1 2.1 0 0 0 .8 0 1.6 1.6 0 0 0 .6-.4zM38.5 429a3.3 3.3 0 0 1 1 2.5v5.4h-1.2v-1.4a2.6 2.6 0 0 1-1.2 1 4 4 0 0 1-1.8.4 3.6 3.6 0 0 1-2.3-.6 2.2 2.2 0 0 1-.8-1.9 2.2 2.2 0 0 1 .8-1.7 4 4 0 0 1 2.5-.7h2.8v-.5a2.2 2.2 0 0 0-.7-1.7 2.6 2.6 0 0 0-1.8-.6 4.4 4.4 0 0 0-1.6.3 4 4 0 0 0-1.3.7l-.5-.9a4.6 4.6 0 0 1 1.6-.8 6.1 6.1 0 0 1 2-.3 3.7 3.7 0 0 1 2.5.8zm-1.3 6.6a2.8 2.8 0 0 0 1-1.3v-1.5h-2.7c-1.4 0-2.2.6-2.2 1.6a1.4 1.4 0 0 0 .6 1.2 2.6 2.6 0 0 0 1.6.4 3 3 0 0 0 1.7-.4zM47.1 436.3a2.1 2.1 0 0 1-.8.5 3.1 3.1 0 0 1-1 .1 2.5 2.5 0 0 1-1.9-.6 2.5 2.5 0 0 1-.6-1.9v-5.2h-1.6v-1h1.6v-1.9h1.1v2h2.7v1h-2.7v5a1.6 1.6 0 0 0 .4 1.2 1.5 1.5 0 0 0 1.1.4 2 2 0 0 0 .7 0 1.7 1.7 0 0 0 .6-.4zM57 428.2v8.7h-1v-1.6a3.1 3.1 0 0 1-1.4 1.2 3.8 3.8 0 0 1-1.8.5 3.3 3.3 0 0 1-3.6-3.8v-5h1.1v5a2.9 2.9 0 0 0 .7 2 2.5 2.5 0 0 0 2 .7 2.9 2.9 0 0 0 2-.8 3.2 3.2 0 0 0 .9-2.3v-4.6zM60.6 436.6a4.2 4.2 0 0 1-1.5-.7l.5-1a4.2 4.2 0 0 0 1.4.8 5.4 5.4 0 0 0 1.7.2 3.3 3.3 0 0 0 1.8-.3 1.2 1.2 0 0 0 .5-1 1 1 0 0 0-.3-.8 2.2 2.2 0 0 0-.8-.4l-1.2-.3a13.4 13.4 0 0 1-1.7-.4 2.5 2.5 0 0 1-1.1-.7 2 2 0 0 1-.5-1.3 2.1 2.1 0 0 1 1-1.8 4 4 0 0 1 2.4-.7 6.4 6.4 0 0 1 1.7.2 4.7 4.7 0 0 1 1.4.6l-.5 1a4.3 4.3 0 0 0-2.6-.8 3 3 0 0 0-1.7.4 1.2 1.2 0 0 0-.5 1 1 1 0 0 0 .3.8 2 2 0 0 0 .8.4l1.3.3a15.5 15.5 0 0 1 1.7.4 2.5 2.5 0 0 1 1 .7 1.9 1.9 0 0 1 .5 1.3 2.1 2.1 0 0 1-1 1.8 4.5 4.5 0 0 1-2.6.6 6.7 6.7 0 0 1-2-.3zM546.5 55.6a8.3 8.3 0 0 1-2.2-6.1V39h3.4v10.2q0 5.4 4.7 5.4c3 0 4.6-1.8 4.6-5.4V39.1h3.3v10.4a8.3 8.3 0 0 1-2 6 9.2 9.2 0 0 1-11.8 0zM566.7 57a8.6 8.6 0 0 1-3.1-1.5l1.1-2.6a9.5 9.5 0 0 0 2.8 1.4 10 10 0 0 0 3.3.6 5.7 5.7 0 0 0 3-.7 2 2 0 0 0 1-1.7 1.6 1.6 0 0 0-.6-1.3 3.9 3.9 0 0 0-1.4-.8 32 32 0 0 0-2.3-.6 25.8 25.8 0 0 1-3.4-1 5.5 5.5 0 0 1-2.3-1.6 4.2 4.2 0 0 1-.9-2.9 4.9 4.9 0 0 1 .8-2.7 5.6 5.6 0 0 1 2.5-2 10 10 0 0 1 4-.7 13.1 13.1 0 0 1 3.4.4 9.1 9.1 0 0 1 2.8 1.2l-1.1 2.6a10.4 10.4 0 0 0-2.5-1 9.1 9.1 0 0 0-2.5-.4 5.3 5.3 0 0 0-3 .7 2 2 0 0 0-1 1.8 1.6 1.6 0 0 0 .5 1.2 4 4 0 0 0 1.4.8l2.4.7a24.2 24.2 0 0 1 3.3 1 5.8 5.8 0 0 1 2.3 1.5 4.1 4.1 0 0 1 .9 2.9 4.9 4.9 0 0 1-.8 2.7 5.6 5.6 0 0 1-2.5 2 10 10 0 0 1-4 .7 14 14 0 0 1-4.1-.6zM595.3 54.6v2.8h-13.8V39.1H595V42h-10v4.8h8.9v2.8h-8.9v5zM599 39.1h8a11.5 11.5 0 0 1 5.2 1.2 8.4 8.4 0 0 1 3.5 3.2 9.8 9.8 0 0 1 0 9.6 8.4 8.4 0 0 1-3.5 3.2 11.5 11.5 0 0 1-5.2 1.1h-8zm7.8 15.5a7.8 7.8 0 0 0 3.6-.8 5.6 5.6 0 0 0 2.3-2.2 7 7 0 0 0 0-6.6 5.5 5.5 0 0 0-2.3-2.2 7.7 7.7 0 0 0-3.6-.8h-4.4v12.6zM631.2 42v5.6h8.9v2.8h-8.9v7h-3.4V39.1h13.4V42zM647.8 56.5a9 9 0 0 1-3.5-3.4 9.7 9.7 0 0 1 0-9.6 9 9 0 0 1 3.5-3.4 11.1 11.1 0 0 1 10 0 9 9 0 0 1 3.6 3.4 9.8 9.8 0 0 1 0 9.6 9 9 0 0 1-3.5 3.4 11.1 11.1 0 0 1-10.1 0zm8.3-2.6a6 6 0 0 0 2.3-2.3 7 7 0 0 0 0-6.6 6 6 0 0 0-2.3-2.3 7 7 0 0 0-6.6 0 6 6 0 0 0-2.3 2.3 7 7 0 0 0 0 6.6 6 6 0 0 0 2.3 2.3 7 7 0 0 0 6.6 0zM678.2 57.4l-3.7-5.3a6 6 0 0 1-.7 0h-4.1v5.3h-3.4V39.1h7.5a10.2 10.2 0 0 1 4.1.8 6.2 6.2 0 0 1 2.7 2.3 6.3 6.3 0 0 1 1 3.4 6.2 6.2 0 0 1-1 3.6 6 6 0 0 1-3 2.2l4.3 6zM677 43a5.2 5.2 0 0 0-3.4-1h-4v7.3h4a5.2 5.2 0 0 0 3.4-1 3.3 3.3 0 0 0 1.1-2.7A3.3 3.3 0 0 0 677 43zM671.3 100H550.5a4.5 4.5 0 0 0-4.5 4.5V171a4.5 4.5 0 0 0 4.5 4.5h120.8a4.5 4.5 0 0 0 4.6-4.5v-66.5a4.5 4.5 0 0 0-4.6-4.5z"/><path class="cls-2" d="M671.3 100H550.5a4.5 4.5 0 0 0-4.5 4.5V118h129.9v-13.5a4.5 4.5 0 0 0-4.6-4.5z"/><text transform="translate(595.5 112.3)" font-size="10" font-family="Montserrat-Black,Montserrat" letter-spacing="0em" fill="#fff">S<tspan x="6.5" y="0">TA</tspan><tspan x="20.4" y="0" letter-spacing="0">TE ID</tspan></text><rect class="cls-1" x="595.5" y="126.4" width="52.5" height="3.7" rx="1.8" ry="1.8"/><rect class="cls-3" x="551" y="106" width="22.4" height="3.7" rx="1.8" ry="1.8"/><rect class="cls-1" x="595.5" y="168.2" width="23.7" height="3" rx="1.5" ry="1.5"/><rect class="cls-1" x="595.5" y="150.4" width="34.1" height="3" rx="1.5" ry="1.5"/><rect class="cls-1" x="595.5" y="155.1" width="34.1" height="3" rx="1.5" ry="1.5"/><rect class="cls-1" x="655.3" y="149.4" width="17" height="3" rx="1.5" ry="1.5"/><path class="cls-1" d="M552.2 118h31.3v40.3h-31.3zM652.3 118H676v5.7h-23.7z"/><ellipse class="cls-3" cx="568.1" cy="133.9" rx="9.8" ry="12.9"/><path class="cls-3" d="M568.6 146.5s-13 5.2-13 11.6h13zM568.6 146.5s12.8 5.2 12.8 11.6h-12.8z"/><path class="cls-3" d="M569 144v5.9l-3.9.4-.2-6.2h4z"/><path class="cls-3" d="M571.8 144v5.9l-3.8.4-.3-6.2h4z"/><path class="cls-1" d="M659.4 163.4v-5.8a2.2 2.2 0 0 1 2.1-2h8.8a2 2 0 0 1 2 2v11.7a2 2 0 0 1-2 2h-8.8a2 2 0 0 1-2-2z"/><rect class="cls-1" x="595.5" y="132.7" width="52.5" height="3.7" rx="1.8" ry="1.8"/><rect class="cls-1" x="595.5" y="139.1" width="52.5" height="3.7" rx="1.8" ry="1.8"/><rect class="cls-1" x="622.9" y="168.2" width="23.7" height="3" rx="1.5" ry="1.5"/><path class="cls-3" d="M590.2 126.5a6.8 6.8 0 0 1-.8.3c-.6.1-.7.4-.5 1a2 2 0 0 1 0 .7l-.8-.2a1.2 1.2 0 0 1-.3-.1c-1-.6-1.2-.5-1.8.6-.6 0-1.5-.8-1.3-1.4.4-1.7-.7-2.5-2-3.3a8.5 8.5 0 0 1-1-.9 1.2 1.2 0 0 1-.3-1.6 5.6 5.6 0 0 0 .5-1.5l-.1-.8c-.1 0-.8-.3-1-.2-.6.3-.9.1-.9-.3 0-1.6-1.2-2.3-2.1-3.2a4.4 4.4 0 0 1-.9-4.3c.3-1.2 1.5-1.5 1.8-2.6 0-.5.2-.9 0-1.3-.6-.8-.4-1.4.6-1.6a3.2 3.2 0 0 0 2.8-2.7 1.7 1.7 0 0 0-.3-1 25.5 25.5 0 0 0-1.7-2l1-.1 9.8.1c.6 0 .7.2.8.8a19.5 19.5 0 0 0 1 3 2.5 2.5 0 0 1 .2.9V116l-.3 1a4.3 4.3 0 0 0 .1 1.7 3 3 0 0 1-.6 2.7 5.1 5.1 0 0 0-1.2 2l-.7 3.1z" id="q6XrDO.tif"/><path class="cls-3" d="M590 266l.6-3.9-3-5-2 1.3 2.9 2.8 1 2.3-1.2-.1 1.8 2.6z"/><path class="cls-1" d="M610.8 230.5a1.4 1.4 0 0 0 0-1.3l-.6-1.2a4.8 4.8 0 0 1 .6-4 5.5 5.5 0 0 1 1.2-1.6 6.6 6.6 0 0 1 3.5-1.2 9.6 9.6 0 0 1 3.2 0c1 .1 2 .6 2.9 0 .1 0 .3-.2.4 0a.3.3 0 0 1 .2 0 4.1 4.1 0 0 1-.5 2.7 8.3 8.3 0 0 0-.4 3.5 2.3 2.3 0 0 1-.1 1.2 3.4 3.4 0 0 0-.3.7c-.1.3.2.7.5 1s.5.7.3 1-.9.2-1.4.4a1.5 1.5 0 0 0-.8 1.5 1.2 1.2 0 0 1 0 .5c-.2.3-.5.3-.8.5s-.4.5-.1.7l9.2 9.6 11-3.7 1-3.3 3-1.5-.4 1 1.8 2.4-1.3 1.5-1.8-2.2 1 3.1-2.6 1.8.5 2.5s-10.2 3.8-12.2 3.7-9-3.6-9-3.6l-3.1 15.4 17.9 7L643 288l9.3.5-11.4 7.2-11.2-20.8-16-3.8-19 18.9-20.4-14.7-8.2 4 8-13.2 20.2 14 7.1-18.7-1.2-18.8-7 1.9-1.7 17-1.5 2.5-.1-2.2-1.2 1.3-2.8-2.7 2-3v-1l-1.9-1 2.2-14.5 12-6.4s.6-3.9 3.6-3.8a27.3 27.3 0 0 1 5.4.8z"/><path class="cls-3" d="M577.6 280.2l2.3 1.4 13.8-9.2-9.8-18.2-1.6-.7-4.7 26.7z"/><path class="cls-2" d="M582.3 253.5l9.4 17.3-14.1 9.4-8.9-17.4 13.6-9.3zM616.2 235.7s-.9 2.4.2 3l1.2.5.1-3z"/><path class="cls-2" d="M617.3 237.7s5-.2 2.5 3.3a96.6 96.6 0 0 0-5 8.4l3 7-1 2.4-2.2-2.3s-1.6-5.8-.6-8.6a81.2 81.2 0 0 1 3.8-7.7l-.9-1.3"/><path class="cls-4" d="M249.2 330.9v9.7h15.4v5h-15.4v12.2h-5.9v-31.9h23.3v5zM293.2 357.8l-6.5-9.3a11.9 11.9 0 0 1-1.2 0h-7.2v9.3h-6v-31.9h13.2a17.5 17.5 0 0 1 7.2 1.4 10.5 10.5 0 0 1 4.7 3.9 11 11 0 0 1 1.6 6 10.9 10.9 0 0 1-1.7 6.2 10.4 10.4 0 0 1-5 4l7.3 10.4zm-2.1-25.2a9.1 9.1 0 0 0-6-1.7h-6.8v12.7h6.9a9 9 0 0 0 5.9-1.6 5.8 5.8 0 0 0 2-4.8 5.7 5.7 0 0 0-2-4.6zM329.6 352.8v5h-24V326H329v5h-17.3v8.3H327v4.8h-15.4v8.8zM360 352.8v5h-23.8V326h23.3v5H342v8.3h15.4v4.8H342v8.8zM411.3 396.8a5.5 5.5 0 0 1-2.2-2 6.2 6.2 0 0 1 0-6 5.5 5.5 0 0 1 2.2-2.2 6.4 6.4 0 0 1 3-.7 6.6 6.6 0 0 1 2.4.4 4.9 4.9 0 0 1 1.9 1.2l-.8.8a4.6 4.6 0 0 0-3.4-1.3 5 5 0 0 0-2.5.6 4.8 4.8 0 0 0 0 8.3 5 5 0 0 0 2.5.6 4.5 4.5 0 0 0 3.4-1.4l.8.8a5 5 0 0 1-1.9 1.2 6.4 6.4 0 0 1-2.3.5 6.3 6.3 0 0 1-3.1-.8zM421 385.3h1.1v12.2h-1.2zM425.3 386.7a.8.8 0 0 1-.2-.6.8.8 0 0 1 .2-.6.9.9 0 0 1 .6-.2.8.8 0 0 1 .7.2.8.8 0 0 1 .2.6.9.9 0 0 1-1.5.6zm0 2.1h1.2v8.7h-1.2zM431 397a4 4 0 0 1-1.5-1.6 4.8 4.8 0 0 1 0-4.5 4.1 4.1 0 0 1 1.6-1.6 4.7 4.7 0 0 1 2.2-.5 4.4 4.4 0 0 1 2 .4 3.3 3.3 0 0 1 1.4 1.3l-.8.6a2.8 2.8 0 0 0-1.1-1 3.3 3.3 0 0 0-1.4-.4 3.4 3.4 0 0 0-1.7.5 3 3 0 0 0-1.2 1.2 3.6 3.6 0 0 0-.4 1.7 3.5 3.5 0 0 0 .4 1.8 3 3 0 0 0 1.2 1.2 3.4 3.4 0 0 0 1.7.4 3.3 3.3 0 0 0 1.4-.3 2.6 2.6 0 0 0 1-1l1 .6a3.2 3.2 0 0 1-1.5 1.3 4.3 4.3 0 0 1-2 .4 4.7 4.7 0 0 1-2.2-.5zM442 393.1l-2 1.9v2.5h-1v-12.2h1v8.2l5.2-4.7h1.5l-3.7 3.5 4 5.2h-1.5zM457.6 397a2.1 2.1 0 0 1-.8.4 3.1 3.1 0 0 1-1 .1 2.5 2.5 0 0 1-1.9-.6 2.5 2.5 0 0 1-.6-1.9v-5.2h-1.6v-1h1.6V387h1.1v2h2.6v1h-2.6v5.1a1.6 1.6 0 0 0 .4 1.2 1.5 1.5 0 0 0 1 .4 2.1 2.1 0 0 0 .8-.1 1.5 1.5 0 0 0 .5-.4zM466.7 389.7a3.7 3.7 0 0 1 1 2.8v5h-1.2v-5a2.9 2.9 0 0 0-.7-2 2.5 2.5 0 0 0-1.9-.7 3 3 0 0 0-2.2.8 3.2 3.2 0 0 0-.8 2.3v4.6h-1.2v-12.2h1.2v5a3 3 0 0 1 1.3-1.1 4.2 4.2 0 0 1 2-.5 3.5 3.5 0 0 1 2.5 1zM478.4 393.5h-7.2a3.1 3.1 0 0 0 1 2.2 3.4 3.4 0 0 0 2.3.8 3.8 3.8 0 0 0 1.5-.3 3.1 3.1 0 0 0 1.2-.8l.6.7a3.7 3.7 0 0 1-1.4 1 5 5 0 0 1-2 .4 4.8 4.8 0 0 1-2.3-.5 4.1 4.1 0 0 1-1.6-1.6 4.5 4.5 0 0 1-.5-2.3 4.6 4.6 0 0 1 .5-2.2 4.1 4.1 0 0 1 1.5-1.6 4.2 4.2 0 0 1 2.2-.6 4.2 4.2 0 0 1 2.1.6 4 4 0 0 1 1.5 1.6 4.6 4.6 0 0 1 .6 2.2zm-6.3-3a3.1 3.1 0 0 0-1 2.1h6.2a3.2 3.2 0 0 0-1-2 3 3 0 0 0-2.2-.8 3 3 0 0 0-2 .8zM491.7 389.3a4 4 0 0 1 1.6 1.6 5 5 0 0 1 0 4.5 4 4 0 0 1-1.6 1.6 4.4 4.4 0 0 1-2.2.5 4 4 0 0 1-2-.4 3.6 3.6 0 0 1-1.3-1.3v1.7H485v-12.2h1.2v5.2a3.6 3.6 0 0 1 1.4-1.3 4.1 4.1 0 0 1 1.9-.4 4.5 4.5 0 0 1 2.2.5zm-.6 6.8a3 3 0 0 0 1.2-1.2 3.9 3.9 0 0 0 0-3.5 3 3 0 0 0-1.2-1.2 3.3 3.3 0 0 0-1.6-.4 3.2 3.2 0 0 0-1.7.4 3 3 0 0 0-1.1 1.2 3.9 3.9 0 0 0 0 3.5 3 3 0 0 0 1.1 1.2 3.2 3.2 0 0 0 1.7.4 3.3 3.3 0 0 0 1.6-.4zM501.8 389.6a3.3 3.3 0 0 1 .9 2.5v5.4h-1.1V396a2.7 2.7 0 0 1-1.2 1 4.1 4.1 0 0 1-1.8.4 3.6 3.6 0 0 1-2.3-.6 2.3 2.3 0 0 1-.9-1.9 2.2 2.2 0 0 1 .8-1.7 4 4 0 0 1 2.6-.7h2.7v-.5a2.2 2.2 0 0 0-.6-1.7 2.5 2.5 0 0 0-1.8-.6 4.7 4.7 0 0 0-1.6.2 4 4 0 0 0-1.3.8l-.5-.9a4.6 4.6 0 0 1 1.6-.8 6.2 6.2 0 0 1 1.9-.3 3.7 3.7 0 0 1 2.6.8zm-1.3 6.6a2.7 2.7 0 0 0 1-1.3v-1.4h-2.7c-1.5 0-2.2.5-2.2 1.5a1.4 1.4 0 0 0 .5 1.2 2.6 2.6 0 0 0 1.6.4 3.1 3.1 0 0 0 1.8-.4zM508.2 389.2a4 4 0 0 1 2-.5v1.2h-.3a2.8 2.8 0 0 0-2.1.8 3.4 3.4 0 0 0-.8 2.4v4.4H506v-8.7h1.1v1.7a2.8 2.8 0 0 1 1.2-1.3zM415.8 409a4 4 0 0 1 1.5 1.6 5 5 0 0 1 0 4.5 4.1 4.1 0 0 1-1.5 1.6 4.4 4.4 0 0 1-2.2.5 4.2 4.2 0 0 1-2-.4 3.6 3.6 0 0 1-1.4-1.3v1.7h-1V405h1v5.2a3.7 3.7 0 0 1 1.5-1.3 4.2 4.2 0 0 1 1.9-.4 4.4 4.4 0 0 1 2.2.5zm-.7 6.8a3 3 0 0 0 1.2-1.2 3.9 3.9 0 0 0 0-3.5 3 3 0 0 0-1.2-1.2 3.5 3.5 0 0 0-3.3 0 3 3 0 0 0-1.1 1.2 4 4 0 0 0 0 3.5 3 3 0 0 0 1.1 1.2 3.5 3.5 0 0 0 3.3 0zM427.8 413.2h-7.3a3.1 3.1 0 0 0 1 2.2 3.4 3.4 0 0 0 2.4.8 3.6 3.6 0 0 0 1.5-.3 3.2 3.2 0 0 0 1.2-.8l.6.7a3.7 3.7 0 0 1-1.4 1 5 5 0 0 1-2 .4 4.8 4.8 0 0 1-2.3-.5 4.1 4.1 0 0 1-1.6-1.6 4.5 4.5 0 0 1-.6-2.3 4.6 4.6 0 0 1 .6-2.2 4 4 0 0 1 1.5-1.6 4.2 4.2 0 0 1 2.2-.5 4.2 4.2 0 0 1 2.1.5 3.9 3.9 0 0 1 1.5 1.6 4.6 4.6 0 0 1 .6 2.2zm-6.3-3a3.1 3.1 0 0 0-1 2.1h6.1a3.1 3.1 0 0 0-1-2 3 3 0 0 0-2-.8 3 3 0 0 0-2 .8zM430.2 405h1.1v12.2h-1.1zM435.9 416.7a4.1 4.1 0 0 1-1.6-1.6 4.7 4.7 0 0 1 0-4.5 4 4 0 0 1 1.6-1.6 4.5 4.5 0 0 1 2.2-.5 4.6 4.6 0 0 1 2.3.5 4 4 0 0 1 1.5 1.6 4.8 4.8 0 0 1 0 4.5 4 4 0 0 1-1.5 1.6 4.5 4.5 0 0 1-2.3.6 4.4 4.4 0 0 1-2.2-.6zm3.9-1a3 3 0 0 0 1.1-1.1 4 4 0 0 0 0-3.5 3 3 0 0 0-1.1-1.2 3.5 3.5 0 0 0-3.3 0 3 3 0 0 0-1.2 1.2 3.9 3.9 0 0 0 0 3.5 3 3 0 0 0 1.2 1.2 3.5 3.5 0 0 0 3.3 0zM457.3 408.5l-3.3 8.7h-1l-2.7-7.1-2.8 7h-1l-3.3-8.6h1.1l2.7 7.4 2.8-7.4h1l2.8 7.4 2.7-7.4zM465.1 406.3a1.7 1.7 0 0 0-.4 1.2v1h2.7v1h-2.7v7.7h-1.1v-7.7H462v-1h1.5v-1a2.6 2.6 0 0 1 .7-2 2.6 2.6 0 0 1 2-.6 3 3 0 0 1 .9.1 2 2 0 0 1 .8.4l-.4.9a2 2 0 0 0-1.3-.4 1.5 1.5 0 0 0-1.1.4zM470 416.7a4.2 4.2 0 0 1-1.5-1.6 4.8 4.8 0 0 1 0-4.5 4 4 0 0 1 1.6-1.6 4.8 4.8 0 0 1 4.5 0 4 4 0 0 1 1.5 1.6 4.8 4.8 0 0 1 0 4.5 4 4 0 0 1-1.5 1.6 4.7 4.7 0 0 1-4.5 0zm4-1a2.9 2.9 0 0 0 1.1-1.1 4 4 0 0 0 0-3.5 2.9 2.9 0 0 0-1.1-1.2 3.5 3.5 0 0 0-3.3 0 3 3 0 0 0-1.1 1.2 3.9 3.9 0 0 0 0 3.5 3 3 0 0 0 1.1 1.2 3.5 3.5 0 0 0 3.3 0zM481.4 408.9a4.2 4.2 0 0 1 2-.4v1h-.2a2.8 2.8 0 0 0-2.2 1 3.4 3.4 0 0 0-.7 2.3v4.4H479v-8.7h1.1v1.7a2.9 2.9 0 0 1 1.2-1.3zM422.4 429.1a3.8 3.8 0 0 1 1 2.8v5h-1.2V432a3 3 0 0 0-.6-2 2.4 2.4 0 0 0-1.9-.8 2.7 2.7 0 0 0-2 .9 3.2 3.2 0 0 0-.9 2.3v4.5h-1.1V432a3 3 0 0 0-.7-2 2.4 2.4 0 0 0-1.8-.8 2.7 2.7 0 0 0-2.1.9 3.2 3.2 0 0 0-.8 2.3v4.5H409v-8.6h1.1v1.5a3.2 3.2 0 0 1 1.3-1.2 4.1 4.1 0 0 1 2-.4 3.7 3.7 0 0 1 1.8.4 2.8 2.8 0 0 1 1.2 1.4 3.4 3.4 0 0 1 1.3-1.3 4.3 4.3 0 0 1 2-.5 3.5 3.5 0 0 1 2.6.9zM427.9 436.4a4 4 0 0 1-1.6-1.6 4.7 4.7 0 0 1 0-4.5 4.1 4.1 0 0 1 1.6-1.6 4.9 4.9 0 0 1 4.5 0 4.1 4.1 0 0 1 1.5 1.6 4.8 4.8 0 0 1 0 4.5 4 4 0 0 1-1.5 1.6 4.7 4.7 0 0 1-4.5 0zm3.9-.9a3 3 0 0 0 1.1-1.2 4 4 0 0 0 0-3.5 3 3 0 0 0-1.1-1.2 3.2 3.2 0 0 0-1.7-.4 3.3 3.3 0 0 0-1.6.4 3 3 0 0 0-1.2 1.2 3.9 3.9 0 0 0 0 3.5 3 3 0 0 0 1.2 1.2 3.3 3.3 0 0 0 1.6.4 3.2 3.2 0 0 0 1.7-.4zM439.2 428.6a4 4 0 0 1 2-.4v1.1h-.3a2.7 2.7 0 0 0-2 .8 3.3 3.3 0 0 0-.9 2.4v4.4H437v-8.6h1.1v1.6a2.9 2.9 0 0 1 1.2-1.3zM450.8 433h-7.3a3.1 3.1 0 0 0 1 2 3.4 3.4 0 0 0 2.4 1 3.8 3.8 0 0 0 1.5-.4 3.1 3.1 0 0 0 1.2-.8l.6.7a3.7 3.7 0 0 1-1.4 1 5 5 0 0 1-2 .4 4.8 4.8 0 0 1-2.3-.6 4.1 4.1 0 0 1-1.6-1.5 4.5 4.5 0 0 1-.6-2.3 4.6 4.6 0 0 1 .6-2.3 4 4 0 0 1 1.5-1.5 4.2 4.2 0 0 1 2.2-.6 4.2 4.2 0 0 1 2.1.6 4 4 0 0 1 1.5 1.5 4.6 4.6 0 0 1 .6 2.3zm-6.3-3a3.2 3.2 0 0 0-1 2h6.1a3.2 3.2 0 0 0-1-2 3.2 3.2 0 0 0-4.2 0zM457.4 426.1a.8.8 0 0 1-.2-.6.8.8 0 0 1 .2-.6.9.9 0 0 1 .7-.2.8.8 0 0 1 .6.2.8.8 0 0 1 .2.6.9.9 0 0 1-1.4.6zm0 2.1h1.2v8.7h-1.2zM468.9 429.1a3.7 3.7 0 0 1 1 2.8v5h-1.2V432a3 3 0 0 0-.7-2 2.5 2.5 0 0 0-1.9-.8 2.9 2.9 0 0 0-2.2.9 3 3 0 0 0-.8 2.3v4.5h-1.2v-8.6h1.1v1.5a3.3 3.3 0 0 1 1.3-1.2 4.2 4.2 0 0 1 2-.4 3.5 3.5 0 0 1 2.6 1zM474.7 426a1.7 1.7 0 0 0-.4 1.2v1h2.7v1h-2.6v7.7h-1.2v-7.7h-1.5v-1h1.5v-1a2.6 2.6 0 0 1 .7-2 2.6 2.6 0 0 1 2-.6 3.3 3.3 0 0 1 .9.1 2.2 2.2 0 0 1 .7.4l-.4.9a2 2 0 0 0-1.2-.4 1.5 1.5 0 0 0-1.2.4zM479.7 436.4a4.1 4.1 0 0 1-1.6-1.6 4.7 4.7 0 0 1 0-4.5 4.2 4.2 0 0 1 1.6-1.6 4.6 4.6 0 0 1 2.3-.5 4.5 4.5 0 0 1 2.2.5 4.1 4.1 0 0 1 1.6 1.6 4.8 4.8 0 0 1 0 4.5 4 4 0 0 1-1.6 1.6 4.4 4.4 0 0 1-2.2.6 4.5 4.5 0 0 1-2.3-.6zm3.9-.9a3 3 0 0 0 1.1-1.2 4 4 0 0 0 0-3.5 3 3 0 0 0-1.1-1.2 3.2 3.2 0 0 0-1.7-.4 3.3 3.3 0 0 0-1.6.4 3 3 0 0 0-1.1 1.2 3.9 3.9 0 0 0 0 3.5 3 3 0 0 0 1.1 1.2 3.3 3.3 0 0 0 1.6.4 3.2 3.2 0 0 0 1.7-.4z"/><path class="cls-9" d="M477.6 317.6c-1.6-3.6-5.6-5.6-9.3-6-7.9-1-12.8 6.8-16.2 12.6a3.5 3.5 0 0 0-.2.5 21.3 21.3 0 0 1 8-.7l1-1.4.4-.6.1-.2.4-.5a20.4 20.4 0 0 1 2-2l.3-.2 1.5-.8h.2l.8-.3a10 10 0 0 1 1.1 0 6.4 6.4 0 0 0 .7.2l.5.1.4.2.3.1.5.3.8.5.3.3.3.3.4.7.1.3c.1.1.1 1.2.1.4v2.6c-.2.3-.2.6-.3 1a35 35 0 0 1-1.6 4.7l-.1.4a1.5 1.5 0 0 0-.2.3l-.6 1.5-1.5 3a50.2 50.2 0 0 1-3.6 5.7l-.5.7-1 1.3a24.5 24.5 0 0 1-2.3 2.1c-.1.1-.4.5-.6.5s.6-.4.3-.2l-.3.2a13.2 13.2 0 0 1-1.3.8l-.6.3h-.1l-.7.2h-1.4l-.7-.2-.6-.3-.7-.5-.2-.1a3.3 3.3 0 0 0-4.6 0c-1.1 1-1.4 3.3 0 4.5a11.6 11.6 0 0 0 7.3 3.1 12 12 0 0 0 6.5-2c4.3-2.8 7.5-7.2 10-11.6a51.8 51.8 0 0 0 5.3-12.6 13.7 13.7 0 0 0-.4-9.2zm-6.7 1.7c.5.3.2.1.1 0zm-16 27c-.6-.3 0 0 .1 0zm.2 0zm17-22.8c0 .5 0 .2 0 0zm-.1-2.8c.1.3 0 .1 0 0z"/><path class="cls-9" d="M457 346.5a.6.6 0 0 0-.3 0 1.5 1.5 0 0 1 .3 0z"/><path class="cls-9" d="M452 356.9l-.4.5-.2.2-.4.5a16.2 16.2 0 0 1-1.2 1.3l-.8.7-.2.2h-.1l-1.4.8h-.3l-.8.3a10 10 0 0 1-1 0 6.4 6.4 0 0 0-.7-.2l-.5-.1-.4-.2-.3-.1-.5-.3-.8-.5-.4-.3-.3-.3-.3-.7-.2-.4v-.3-1.2-1.4l.3-1a35 35 0 0 1 1.5-4.8l.2-.4.1-.2.7-1.6 1.5-3a50.2 50.2 0 0 1 3.5-5.6l.5-.7 1.1-1.3a24.5 24.5 0 0 1 2.2-2.2c.2 0 .5-.4.6-.5l-.3.3.4-.3a13.2 13.2 0 0 1 1.3-.8l.5-.2h.2l.7-.3h.3c.2 0 .2 0 0 .1h1c.3 0 .5 0 .7.2l.7.3.7.4.2.2a3.3 3.3 0 0 0 4.6 0c1-1.1 1.4-3.3 0-4.5a11.5 11.5 0 0 0-7.3-3.1 12 12 0 0 0-6.5 2 32.6 32.6 0 0 0-10 11.6 51.8 51.8 0 0 0-5.4 12.6 13.7 13.7 0 0 0 .4 9.2c1.7 3.5 5.7 5.6 9.4 6 7.8.9 12.7-6.9 16.1-12.7a2.3 2.3 0 0 0 .2-.4 21.3 21.3 0 0 1-7.9.6l-1 1.6zm6-23.7c.5.1 0 0-.2-.1zm-.2-.1zm-17 22.7c0-.5 0-.1 0 0zm0 2.9c-.1-.3 0-.2 0 0zm1 1.3c-.4-.2-.1 0 0 0z"/><path class="cls-9" d="M455.8 332.9a.6.6 0 0 0 .3 0 1.4 1.4 0 0 1-.3 0z"/></g></g></svg>